<mxfile host="app.diagrams.net" modified="2022-03-20T07:43:08.044Z" agent="5.0 (Macintosh; Intel Mac OS X 10_15_7) AppleWebKit/537.36 (KHTML, like Gecko) Chrome/99.0.4844.51 Safari/537.36" etag="aHaShqLPAs-iQ2gjQFwl" version="16.6.4" type="github" pages="3">
  <diagram name="Expression 1" id="10a91c8b-09ff-31b1-d368-03940ed4cc9e">
    <mxGraphModel dx="1186" dy="646" grid="1" gridSize="10" guides="1" tooltips="1" connect="1" arrows="1" fold="1" page="1" pageScale="1" pageWidth="1100" pageHeight="850" background="none" math="0" shadow="0">
      <root>
        <mxCell id="0" />
        <mxCell id="1" parent="0" />
        <mxCell id="9a6G6KTI8FHR4v1OM2dX-11" style="edgeStyle=orthogonalEdgeStyle;rounded=0;orthogonalLoop=1;jettySize=auto;html=1;fontSize=24;" edge="1" parent="1" source="9a6G6KTI8FHR4v1OM2dX-1">
          <mxGeometry relative="1" as="geometry">
            <mxPoint x="210" y="520" as="targetPoint" />
          </mxGeometry>
        </mxCell>
        <mxCell id="9a6G6KTI8FHR4v1OM2dX-1" value="&lt;font style=&quot;font-size: 24px&quot;&gt;x&lt;/font&gt;" style="text;html=1;align=center;verticalAlign=middle;resizable=0;points=[];autosize=1;strokeColor=none;fillColor=none;" vertex="1" parent="1">
          <mxGeometry x="195" y="580" width="30" height="20" as="geometry" />
        </mxCell>
        <mxCell id="9a6G6KTI8FHR4v1OM2dX-2" value="&lt;font style=&quot;font-size: 24px&quot;&gt;=&lt;/font&gt;" style="text;html=1;align=center;verticalAlign=middle;resizable=0;points=[];autosize=1;strokeColor=none;fillColor=none;" vertex="1" parent="1">
          <mxGeometry x="270" y="580" width="30" height="20" as="geometry" />
        </mxCell>
        <mxCell id="9a6G6KTI8FHR4v1OM2dX-14" style="edgeStyle=orthogonalEdgeStyle;rounded=0;orthogonalLoop=1;jettySize=auto;html=1;fontSize=24;" edge="1" parent="1" source="9a6G6KTI8FHR4v1OM2dX-3">
          <mxGeometry relative="1" as="geometry">
            <mxPoint x="345" y="540" as="targetPoint" />
          </mxGeometry>
        </mxCell>
        <mxCell id="9a6G6KTI8FHR4v1OM2dX-3" value="&lt;font style=&quot;font-size: 24px&quot;&gt;x&lt;/font&gt;" style="text;html=1;align=center;verticalAlign=middle;resizable=0;points=[];autosize=1;strokeColor=none;fillColor=none;" vertex="1" parent="1">
          <mxGeometry x="330" y="580" width="30" height="20" as="geometry" />
        </mxCell>
        <mxCell id="9a6G6KTI8FHR4v1OM2dX-16" style="edgeStyle=orthogonalEdgeStyle;rounded=0;orthogonalLoop=1;jettySize=auto;html=1;fontSize=24;" edge="1" parent="1" source="9a6G6KTI8FHR4v1OM2dX-4">
          <mxGeometry relative="1" as="geometry">
            <mxPoint x="405" y="520" as="targetPoint" />
          </mxGeometry>
        </mxCell>
        <mxCell id="9a6G6KTI8FHR4v1OM2dX-4" value="&lt;font style=&quot;font-size: 24px&quot;&gt;+&lt;/font&gt;" style="text;html=1;align=center;verticalAlign=middle;resizable=0;points=[];autosize=1;strokeColor=none;fillColor=none;" vertex="1" parent="1">
          <mxGeometry x="390" y="580" width="30" height="20" as="geometry" />
        </mxCell>
        <mxCell id="9a6G6KTI8FHR4v1OM2dX-18" style="edgeStyle=orthogonalEdgeStyle;rounded=0;orthogonalLoop=1;jettySize=auto;html=1;fontSize=18;exitX=0.5;exitY=-0.25;exitDx=0;exitDy=0;exitPerimeter=0;" edge="1" parent="1" source="9a6G6KTI8FHR4v1OM2dX-5">
          <mxGeometry relative="1" as="geometry">
            <mxPoint x="465" y="550" as="targetPoint" />
            <mxPoint x="465" y="570" as="sourcePoint" />
            <Array as="points" />
          </mxGeometry>
        </mxCell>
        <mxCell id="9a6G6KTI8FHR4v1OM2dX-5" value="&lt;font style=&quot;font-size: 24px&quot;&gt;1&lt;/font&gt;" style="text;html=1;align=center;verticalAlign=middle;resizable=0;points=[];autosize=1;strokeColor=none;fillColor=none;" vertex="1" parent="1">
          <mxGeometry x="450" y="580" width="30" height="20" as="geometry" />
        </mxCell>
        <mxCell id="9a6G6KTI8FHR4v1OM2dX-37" style="edgeStyle=orthogonalEdgeStyle;rounded=0;orthogonalLoop=1;jettySize=auto;html=1;fontSize=18;" edge="1" parent="1" source="9a6G6KTI8FHR4v1OM2dX-6">
          <mxGeometry relative="1" as="geometry">
            <mxPoint x="350" y="320" as="targetPoint" />
            <Array as="points">
              <mxPoint x="535" y="340" />
              <mxPoint x="535" y="340" />
            </Array>
          </mxGeometry>
        </mxCell>
        <mxCell id="9a6G6KTI8FHR4v1OM2dX-6" value="&lt;font style=&quot;font-size: 24px&quot;&gt;;&lt;/font&gt;" style="text;html=1;align=center;verticalAlign=middle;resizable=0;points=[];autosize=1;strokeColor=none;fillColor=none;" vertex="1" parent="1">
          <mxGeometry x="525" y="580" width="20" height="20" as="geometry" />
        </mxCell>
        <mxCell id="9a6G6KTI8FHR4v1OM2dX-20" style="edgeStyle=orthogonalEdgeStyle;rounded=0;orthogonalLoop=1;jettySize=auto;html=1;fontSize=18;" edge="1" parent="1" source="9a6G6KTI8FHR4v1OM2dX-7">
          <mxGeometry relative="1" as="geometry">
            <mxPoint x="610" y="520" as="targetPoint" />
          </mxGeometry>
        </mxCell>
        <mxCell id="9a6G6KTI8FHR4v1OM2dX-7" value="&lt;font style=&quot;font-size: 24px&quot;&gt;y&lt;/font&gt;" style="text;html=1;align=center;verticalAlign=middle;resizable=0;points=[];autosize=1;strokeColor=none;fillColor=none;" vertex="1" parent="1">
          <mxGeometry x="595" y="580" width="30" height="20" as="geometry" />
        </mxCell>
        <mxCell id="9a6G6KTI8FHR4v1OM2dX-8" value="&lt;font style=&quot;font-size: 24px&quot;&gt;=&lt;/font&gt;" style="text;html=1;align=center;verticalAlign=middle;resizable=0;points=[];autosize=1;strokeColor=none;fillColor=none;" vertex="1" parent="1">
          <mxGeometry x="655" y="580" width="30" height="20" as="geometry" />
        </mxCell>
        <mxCell id="9a6G6KTI8FHR4v1OM2dX-9" value="&lt;font style=&quot;font-size: 24px&quot;&gt;x&lt;/font&gt;" style="text;html=1;align=center;verticalAlign=middle;resizable=0;points=[];autosize=1;strokeColor=none;fillColor=none;" vertex="1" parent="1">
          <mxGeometry x="715" y="580" width="30" height="20" as="geometry" />
        </mxCell>
        <mxCell id="9a6G6KTI8FHR4v1OM2dX-13" value="&lt;font style=&quot;font-size: 24px&quot;&gt;x&lt;/font&gt;" style="text;html=1;align=center;verticalAlign=middle;resizable=0;points=[];autosize=1;strokeColor=none;fillColor=none;" vertex="1" parent="1">
          <mxGeometry x="195" y="490" width="30" height="20" as="geometry" />
        </mxCell>
        <mxCell id="7OBmakc9jK1BvkzzVwsH-1" style="edgeStyle=orthogonalEdgeStyle;rounded=0;orthogonalLoop=1;jettySize=auto;html=1;fontSize=18;" edge="1" parent="1" source="9a6G6KTI8FHR4v1OM2dX-15">
          <mxGeometry relative="1" as="geometry">
            <mxPoint x="345" y="470" as="targetPoint" />
          </mxGeometry>
        </mxCell>
        <mxCell id="9a6G6KTI8FHR4v1OM2dX-15" value="&lt;font style=&quot;font-size: 24px&quot;&gt;x&lt;/font&gt;" style="text;html=1;align=center;verticalAlign=middle;resizable=0;points=[];autosize=1;strokeColor=none;fillColor=none;" vertex="1" parent="1">
          <mxGeometry x="330" y="510" width="30" height="20" as="geometry" />
        </mxCell>
        <mxCell id="9a6G6KTI8FHR4v1OM2dX-30" style="edgeStyle=orthogonalEdgeStyle;rounded=0;orthogonalLoop=1;jettySize=auto;html=1;fontSize=18;" edge="1" parent="1" source="9a6G6KTI8FHR4v1OM2dX-17">
          <mxGeometry relative="1" as="geometry">
            <mxPoint x="405" y="400" as="targetPoint" />
          </mxGeometry>
        </mxCell>
        <mxCell id="9a6G6KTI8FHR4v1OM2dX-17" value="&lt;font style=&quot;font-size: 18px&quot;&gt;AOp&lt;/font&gt;" style="text;html=1;align=center;verticalAlign=middle;resizable=0;points=[];autosize=1;strokeColor=none;fillColor=none;" vertex="1" parent="1">
          <mxGeometry x="380" y="490" width="50" height="20" as="geometry" />
        </mxCell>
        <mxCell id="9a6G6KTI8FHR4v1OM2dX-24" style="edgeStyle=orthogonalEdgeStyle;rounded=0;orthogonalLoop=1;jettySize=auto;html=1;fontSize=18;" edge="1" parent="1" source="9a6G6KTI8FHR4v1OM2dX-19">
          <mxGeometry relative="1" as="geometry">
            <mxPoint x="465" y="500" as="targetPoint" />
          </mxGeometry>
        </mxCell>
        <mxCell id="9a6G6KTI8FHR4v1OM2dX-19" value="&lt;font style=&quot;font-size: 18px&quot;&gt;N&lt;/font&gt;" style="text;html=1;align=center;verticalAlign=middle;resizable=0;points=[];autosize=1;strokeColor=none;fillColor=none;" vertex="1" parent="1">
          <mxGeometry x="450" y="530" width="30" height="20" as="geometry" />
        </mxCell>
        <mxCell id="9a6G6KTI8FHR4v1OM2dX-21" value="&lt;font style=&quot;font-size: 24px&quot;&gt;x&lt;/font&gt;" style="text;html=1;align=center;verticalAlign=middle;resizable=0;points=[];autosize=1;strokeColor=none;fillColor=none;" vertex="1" parent="1">
          <mxGeometry x="595" y="490" width="30" height="20" as="geometry" />
        </mxCell>
        <mxCell id="9a6G6KTI8FHR4v1OM2dX-26" style="edgeStyle=orthogonalEdgeStyle;rounded=0;orthogonalLoop=1;jettySize=auto;html=1;fontSize=18;" edge="1" parent="1" source="9a6G6KTI8FHR4v1OM2dX-25">
          <mxGeometry relative="1" as="geometry">
            <mxPoint x="465" y="450" as="targetPoint" />
          </mxGeometry>
        </mxCell>
        <mxCell id="9a6G6KTI8FHR4v1OM2dX-25" value="&lt;font style=&quot;font-size: 18px&quot;&gt;T&lt;/font&gt;" style="text;html=1;align=center;verticalAlign=middle;resizable=0;points=[];autosize=1;strokeColor=none;fillColor=none;" vertex="1" parent="1">
          <mxGeometry x="450" y="480" width="30" height="20" as="geometry" />
        </mxCell>
        <mxCell id="9a6G6KTI8FHR4v1OM2dX-27" value="&lt;font style=&quot;font-size: 18px&quot;&gt;E&lt;/font&gt;" style="text;html=1;align=center;verticalAlign=middle;resizable=0;points=[];autosize=1;strokeColor=none;fillColor=none;" vertex="1" parent="1">
          <mxGeometry x="450" y="425" width="30" height="20" as="geometry" />
        </mxCell>
        <mxCell id="9a6G6KTI8FHR4v1OM2dX-29" value="" style="endArrow=classic;html=1;rounded=0;fontSize=18;" edge="1" parent="1">
          <mxGeometry width="50" height="50" relative="1" as="geometry">
            <mxPoint x="350" y="440" as="sourcePoint" />
            <mxPoint x="390" y="400" as="targetPoint" />
            <Array as="points" />
          </mxGeometry>
        </mxCell>
        <mxCell id="9a6G6KTI8FHR4v1OM2dX-31" value="" style="endArrow=classic;html=1;rounded=0;fontSize=18;" edge="1" parent="1">
          <mxGeometry width="50" height="50" relative="1" as="geometry">
            <mxPoint x="460" y="420" as="sourcePoint" />
            <mxPoint x="420" y="400" as="targetPoint" />
          </mxGeometry>
        </mxCell>
        <mxCell id="9a6G6KTI8FHR4v1OM2dX-32" value="&lt;font style=&quot;font-size: 18px&quot;&gt;E&lt;/font&gt;" style="text;html=1;align=center;verticalAlign=middle;resizable=0;points=[];autosize=1;strokeColor=none;fillColor=none;" vertex="1" parent="1">
          <mxGeometry x="390" y="380" width="30" height="20" as="geometry" />
        </mxCell>
        <mxCell id="9a6G6KTI8FHR4v1OM2dX-33" value="" style="endArrow=classic;html=1;rounded=0;fontSize=18;" edge="1" parent="1">
          <mxGeometry width="50" height="50" relative="1" as="geometry">
            <mxPoint x="210" y="490" as="sourcePoint" />
            <mxPoint x="320" y="320" as="targetPoint" />
            <Array as="points" />
          </mxGeometry>
        </mxCell>
        <mxCell id="9a6G6KTI8FHR4v1OM2dX-34" value="" style="endArrow=classic;html=1;rounded=0;fontSize=18;exitX=0.5;exitY=0;exitDx=0;exitDy=0;exitPerimeter=0;" edge="1" parent="1" source="9a6G6KTI8FHR4v1OM2dX-2">
          <mxGeometry width="50" height="50" relative="1" as="geometry">
            <mxPoint x="280" y="580" as="sourcePoint" />
            <mxPoint x="330" y="320" as="targetPoint" />
            <Array as="points" />
          </mxGeometry>
        </mxCell>
        <mxCell id="9a6G6KTI8FHR4v1OM2dX-35" value="" style="endArrow=classic;html=1;rounded=0;fontSize=18;" edge="1" parent="1">
          <mxGeometry width="50" height="50" relative="1" as="geometry">
            <mxPoint x="400" y="380" as="sourcePoint" />
            <mxPoint x="340" y="320" as="targetPoint" />
          </mxGeometry>
        </mxCell>
        <mxCell id="9a6G6KTI8FHR4v1OM2dX-36" value="&lt;font style=&quot;font-size: 18px&quot;&gt;S&lt;/font&gt;" style="text;html=1;align=center;verticalAlign=middle;resizable=0;points=[];autosize=1;strokeColor=none;fillColor=none;" vertex="1" parent="1">
          <mxGeometry x="310" y="300" width="30" height="20" as="geometry" />
        </mxCell>
        <mxCell id="9a6G6KTI8FHR4v1OM2dX-44" style="edgeStyle=orthogonalEdgeStyle;rounded=0;orthogonalLoop=1;jettySize=auto;html=1;fontSize=18;exitX=0.5;exitY=-0.25;exitDx=0;exitDy=0;exitPerimeter=0;" edge="1" parent="1">
          <mxGeometry relative="1" as="geometry">
            <mxPoint x="730" y="550" as="targetPoint" />
            <mxPoint x="730" y="575" as="sourcePoint" />
            <Array as="points" />
          </mxGeometry>
        </mxCell>
        <mxCell id="9a6G6KTI8FHR4v1OM2dX-45" style="edgeStyle=orthogonalEdgeStyle;rounded=0;orthogonalLoop=1;jettySize=auto;html=1;fontSize=18;" edge="1" parent="1" source="9a6G6KTI8FHR4v1OM2dX-46">
          <mxGeometry relative="1" as="geometry">
            <mxPoint x="730" y="500" as="targetPoint" />
          </mxGeometry>
        </mxCell>
        <mxCell id="9a6G6KTI8FHR4v1OM2dX-46" value="&lt;span style=&quot;font-size: 18px&quot;&gt;X&lt;/span&gt;" style="text;html=1;align=center;verticalAlign=middle;resizable=0;points=[];autosize=1;strokeColor=none;fillColor=none;" vertex="1" parent="1">
          <mxGeometry x="715" y="530" width="30" height="20" as="geometry" />
        </mxCell>
        <mxCell id="9a6G6KTI8FHR4v1OM2dX-47" style="edgeStyle=orthogonalEdgeStyle;rounded=0;orthogonalLoop=1;jettySize=auto;html=1;fontSize=18;" edge="1" parent="1" source="9a6G6KTI8FHR4v1OM2dX-48">
          <mxGeometry relative="1" as="geometry">
            <mxPoint x="730" y="450" as="targetPoint" />
          </mxGeometry>
        </mxCell>
        <mxCell id="9a6G6KTI8FHR4v1OM2dX-48" value="&lt;font style=&quot;font-size: 18px&quot;&gt;T&lt;/font&gt;" style="text;html=1;align=center;verticalAlign=middle;resizable=0;points=[];autosize=1;strokeColor=none;fillColor=none;" vertex="1" parent="1">
          <mxGeometry x="715" y="480" width="30" height="20" as="geometry" />
        </mxCell>
        <mxCell id="9a6G6KTI8FHR4v1OM2dX-49" value="&lt;font style=&quot;font-size: 18px&quot;&gt;E&lt;/font&gt;" style="text;html=1;align=center;verticalAlign=middle;resizable=0;points=[];autosize=1;strokeColor=none;fillColor=none;" vertex="1" parent="1">
          <mxGeometry x="715" y="425" width="30" height="20" as="geometry" />
        </mxCell>
        <mxCell id="9a6G6KTI8FHR4v1OM2dX-50" value="" style="endArrow=classic;html=1;rounded=0;fontSize=18;exitX=0.467;exitY=-0.15;exitDx=0;exitDy=0;exitPerimeter=0;" edge="1" parent="1" source="9a6G6KTI8FHR4v1OM2dX-8">
          <mxGeometry width="50" height="50" relative="1" as="geometry">
            <mxPoint x="665" y="560" as="sourcePoint" />
            <mxPoint x="670" y="320" as="targetPoint" />
          </mxGeometry>
        </mxCell>
        <mxCell id="9a6G6KTI8FHR4v1OM2dX-51" value="" style="endArrow=classic;html=1;rounded=0;fontSize=18;" edge="1" parent="1">
          <mxGeometry width="50" height="50" relative="1" as="geometry">
            <mxPoint x="610" y="490" as="sourcePoint" />
            <mxPoint x="660" y="320" as="targetPoint" />
            <Array as="points" />
          </mxGeometry>
        </mxCell>
        <mxCell id="9a6G6KTI8FHR4v1OM2dX-52" value="" style="endArrow=classic;html=1;rounded=0;fontSize=18;" edge="1" parent="1">
          <mxGeometry width="50" height="50" relative="1" as="geometry">
            <mxPoint x="730" y="420" as="sourcePoint" />
            <mxPoint x="680" y="320" as="targetPoint" />
          </mxGeometry>
        </mxCell>
        <mxCell id="9a6G6KTI8FHR4v1OM2dX-53" value="&lt;font style=&quot;font-size: 18px&quot;&gt;S&lt;/font&gt;" style="text;html=1;align=center;verticalAlign=middle;resizable=0;points=[];autosize=1;strokeColor=none;fillColor=none;" vertex="1" parent="1">
          <mxGeometry x="655" y="300" width="30" height="20" as="geometry" />
        </mxCell>
        <mxCell id="9a6G6KTI8FHR4v1OM2dX-54" value="" style="endArrow=classic;html=1;rounded=0;fontSize=18;exitX=0.767;exitY=-0.25;exitDx=0;exitDy=0;exitPerimeter=0;" edge="1" parent="1" source="9a6G6KTI8FHR4v1OM2dX-36">
          <mxGeometry width="50" height="50" relative="1" as="geometry">
            <mxPoint x="340" y="310" as="sourcePoint" />
            <mxPoint x="520" y="260" as="targetPoint" />
          </mxGeometry>
        </mxCell>
        <mxCell id="9a6G6KTI8FHR4v1OM2dX-55" value="&lt;font style=&quot;font-size: 18px&quot;&gt;P&lt;/font&gt;" style="text;html=1;align=center;verticalAlign=middle;resizable=0;points=[];autosize=1;strokeColor=none;fillColor=none;" vertex="1" parent="1">
          <mxGeometry x="520" y="250" width="30" height="20" as="geometry" />
        </mxCell>
        <mxCell id="9a6G6KTI8FHR4v1OM2dX-56" value="" style="endArrow=classic;html=1;rounded=0;fontSize=18;entryX=1;entryY=0.45;entryDx=0;entryDy=0;entryPerimeter=0;" edge="1" parent="1" target="9a6G6KTI8FHR4v1OM2dX-55">
          <mxGeometry width="50" height="50" relative="1" as="geometry">
            <mxPoint x="660" y="300" as="sourcePoint" />
            <mxPoint x="600" y="240" as="targetPoint" />
          </mxGeometry>
        </mxCell>
        <mxCell id="7OBmakc9jK1BvkzzVwsH-2" value="&lt;font style=&quot;font-size: 18px&quot;&gt;T&lt;/font&gt;" style="text;html=1;align=center;verticalAlign=middle;resizable=0;points=[];autosize=1;strokeColor=none;fillColor=none;" vertex="1" parent="1">
          <mxGeometry x="330" y="445" width="30" height="20" as="geometry" />
        </mxCell>
        <mxCell id="C0VawTagHvzGt6WXK7jM-2" style="edgeStyle=orthogonalEdgeStyle;rounded=0;orthogonalLoop=1;jettySize=auto;html=1;fontSize=18;fontColor=#FF0000;strokeColor=#000000;fillColor=#FF0505;" edge="1" parent="1" source="C0VawTagHvzGt6WXK7jM-1">
          <mxGeometry relative="1" as="geometry">
            <mxPoint x="690" y="320" as="targetPoint" />
            <Array as="points">
              <mxPoint x="780" y="320" />
              <mxPoint x="780" y="320" />
            </Array>
          </mxGeometry>
        </mxCell>
        <mxCell id="C0VawTagHvzGt6WXK7jM-1" value="&lt;font style=&quot;font-size: 24px&quot;&gt;;&lt;/font&gt;" style="text;html=1;align=center;verticalAlign=middle;resizable=0;points=[];autosize=1;strokeColor=none;fillColor=none;" vertex="1" parent="1">
          <mxGeometry x="770" y="580" width="20" height="20" as="geometry" />
        </mxCell>
      </root>
    </mxGraphModel>
  </diagram>
  <diagram id="Vw-_JVOmEjdOW-dtaFLD" name="Expression 2">
    <mxGraphModel dx="1186" dy="646" grid="1" gridSize="10" guides="1" tooltips="1" connect="1" arrows="1" fold="1" page="1" pageScale="1" pageWidth="827" pageHeight="1169" math="0" shadow="0">
      <root>
        <mxCell id="oCzIXGEJWpw0EqeHiXk8-0" />
        <mxCell id="oCzIXGEJWpw0EqeHiXk8-1" parent="oCzIXGEJWpw0EqeHiXk8-0" />
        <mxCell id="xpMIP8xPs-46pkh7QjJu-0" value="&lt;b&gt;If&lt;/b&gt;" style="text;html=1;align=center;verticalAlign=middle;resizable=0;points=[];autosize=1;strokeColor=none;fillColor=none;fontSize=18;" vertex="1" parent="oCzIXGEJWpw0EqeHiXk8-1">
          <mxGeometry x="87" y="670" width="30" height="30" as="geometry" />
        </mxCell>
        <mxCell id="xpMIP8xPs-46pkh7QjJu-1" value="&lt;b&gt;(&lt;/b&gt;" style="text;html=1;align=center;verticalAlign=middle;resizable=0;points=[];autosize=1;strokeColor=none;fillColor=none;fontSize=18;" vertex="1" parent="oCzIXGEJWpw0EqeHiXk8-1">
          <mxGeometry x="127" y="670" width="20" height="30" as="geometry" />
        </mxCell>
        <mxCell id="xpMIP8xPs-46pkh7QjJu-30" style="edgeStyle=orthogonalEdgeStyle;rounded=0;orthogonalLoop=1;jettySize=auto;html=1;fontSize=18;" edge="1" parent="oCzIXGEJWpw0EqeHiXk8-1" source="xpMIP8xPs-46pkh7QjJu-2">
          <mxGeometry relative="1" as="geometry">
            <mxPoint x="167" y="640" as="targetPoint" />
          </mxGeometry>
        </mxCell>
        <mxCell id="xpMIP8xPs-46pkh7QjJu-2" value="x" style="text;html=1;align=center;verticalAlign=middle;resizable=0;points=[];autosize=1;strokeColor=none;fillColor=none;fontSize=18;" vertex="1" parent="oCzIXGEJWpw0EqeHiXk8-1">
          <mxGeometry x="157" y="670" width="20" height="30" as="geometry" />
        </mxCell>
        <mxCell id="xpMIP8xPs-46pkh7QjJu-33" style="edgeStyle=orthogonalEdgeStyle;rounded=0;orthogonalLoop=1;jettySize=auto;html=1;fontSize=18;" edge="1" parent="oCzIXGEJWpw0EqeHiXk8-1" source="xpMIP8xPs-46pkh7QjJu-3">
          <mxGeometry relative="1" as="geometry">
            <mxPoint x="212" y="640" as="targetPoint" />
          </mxGeometry>
        </mxCell>
        <mxCell id="xpMIP8xPs-46pkh7QjJu-3" value="&amp;gt;" style="text;html=1;align=center;verticalAlign=middle;resizable=0;points=[];autosize=1;strokeColor=none;fillColor=none;fontSize=18;" vertex="1" parent="oCzIXGEJWpw0EqeHiXk8-1">
          <mxGeometry x="197" y="670" width="30" height="30" as="geometry" />
        </mxCell>
        <mxCell id="xpMIP8xPs-46pkh7QjJu-35" style="edgeStyle=orthogonalEdgeStyle;rounded=0;orthogonalLoop=1;jettySize=auto;html=1;fontSize=18;" edge="1" parent="oCzIXGEJWpw0EqeHiXk8-1" source="xpMIP8xPs-46pkh7QjJu-4">
          <mxGeometry relative="1" as="geometry">
            <mxPoint x="252" y="640" as="targetPoint" />
          </mxGeometry>
        </mxCell>
        <mxCell id="xpMIP8xPs-46pkh7QjJu-4" value="5" style="text;html=1;align=center;verticalAlign=middle;resizable=0;points=[];autosize=1;strokeColor=none;fillColor=none;fontSize=18;" vertex="1" parent="oCzIXGEJWpw0EqeHiXk8-1">
          <mxGeometry x="237" y="670" width="30" height="30" as="geometry" />
        </mxCell>
        <mxCell id="D9uyjPMeh7Idh-ZuBk3Q-3" style="edgeStyle=orthogonalEdgeStyle;rounded=0;orthogonalLoop=1;jettySize=auto;html=1;fontSize=18;" edge="1" parent="oCzIXGEJWpw0EqeHiXk8-1" source="xpMIP8xPs-46pkh7QjJu-5">
          <mxGeometry relative="1" as="geometry">
            <mxPoint x="167" y="410" as="targetPoint" />
            <Array as="points">
              <mxPoint x="277" y="420" />
              <mxPoint x="277" y="420" />
            </Array>
          </mxGeometry>
        </mxCell>
        <mxCell id="xpMIP8xPs-46pkh7QjJu-5" value="&lt;b&gt;)&lt;/b&gt;" style="text;html=1;align=center;verticalAlign=middle;resizable=0;points=[];autosize=1;strokeColor=none;fillColor=none;fontSize=18;" vertex="1" parent="oCzIXGEJWpw0EqeHiXk8-1">
          <mxGeometry x="267" y="670" width="20" height="30" as="geometry" />
        </mxCell>
        <mxCell id="xpMIP8xPs-46pkh7QjJu-6" value="&lt;b&gt;&lt;font color=&quot;#ff0000&quot;&gt;{&lt;/font&gt;&lt;/b&gt;" style="text;html=1;align=center;verticalAlign=middle;resizable=0;points=[];autosize=1;strokeColor=none;fillColor=none;fontSize=18;" vertex="1" parent="oCzIXGEJWpw0EqeHiXk8-1">
          <mxGeometry x="287" y="670" width="20" height="30" as="geometry" />
        </mxCell>
        <mxCell id="xpMIP8xPs-46pkh7QjJu-44" style="edgeStyle=orthogonalEdgeStyle;rounded=0;orthogonalLoop=1;jettySize=auto;html=1;fontSize=18;" edge="1" parent="oCzIXGEJWpw0EqeHiXk8-1" source="xpMIP8xPs-46pkh7QjJu-7">
          <mxGeometry relative="1" as="geometry">
            <mxPoint x="322" y="640" as="targetPoint" />
          </mxGeometry>
        </mxCell>
        <mxCell id="xpMIP8xPs-46pkh7QjJu-7" value="x" style="text;html=1;align=center;verticalAlign=middle;resizable=0;points=[];autosize=1;strokeColor=none;fillColor=none;fontSize=18;" vertex="1" parent="oCzIXGEJWpw0EqeHiXk8-1">
          <mxGeometry x="312" y="670" width="20" height="30" as="geometry" />
        </mxCell>
        <mxCell id="xpMIP8xPs-46pkh7QjJu-8" value="=" style="text;html=1;align=center;verticalAlign=middle;resizable=0;points=[];autosize=1;strokeColor=none;fillColor=none;fontSize=18;" vertex="1" parent="oCzIXGEJWpw0EqeHiXk8-1">
          <mxGeometry x="342" y="670" width="30" height="30" as="geometry" />
        </mxCell>
        <mxCell id="xpMIP8xPs-46pkh7QjJu-46" style="edgeStyle=orthogonalEdgeStyle;rounded=0;orthogonalLoop=1;jettySize=auto;html=1;fontSize=18;" edge="1" parent="oCzIXGEJWpw0EqeHiXk8-1" source="xpMIP8xPs-46pkh7QjJu-9">
          <mxGeometry relative="1" as="geometry">
            <mxPoint x="397" y="640" as="targetPoint" />
          </mxGeometry>
        </mxCell>
        <mxCell id="xpMIP8xPs-46pkh7QjJu-9" value="x" style="text;html=1;align=center;verticalAlign=middle;resizable=0;points=[];autosize=1;strokeColor=none;fillColor=none;fontSize=18;" vertex="1" parent="oCzIXGEJWpw0EqeHiXk8-1">
          <mxGeometry x="387" y="670" width="20" height="30" as="geometry" />
        </mxCell>
        <mxCell id="xpMIP8xPs-46pkh7QjJu-52" style="edgeStyle=orthogonalEdgeStyle;rounded=0;orthogonalLoop=1;jettySize=auto;html=1;entryX=0.48;entryY=1.033;entryDx=0;entryDy=0;entryPerimeter=0;fontSize=18;" edge="1" parent="oCzIXGEJWpw0EqeHiXk8-1" source="xpMIP8xPs-46pkh7QjJu-10" target="xpMIP8xPs-46pkh7QjJu-48">
          <mxGeometry relative="1" as="geometry" />
        </mxCell>
        <mxCell id="xpMIP8xPs-46pkh7QjJu-10" value="+" style="text;html=1;align=center;verticalAlign=middle;resizable=0;points=[];autosize=1;strokeColor=none;fillColor=none;fontSize=18;" vertex="1" parent="oCzIXGEJWpw0EqeHiXk8-1">
          <mxGeometry x="431" y="670" width="30" height="30" as="geometry" />
        </mxCell>
        <mxCell id="xpMIP8xPs-46pkh7QjJu-54" style="edgeStyle=orthogonalEdgeStyle;rounded=0;orthogonalLoop=1;jettySize=auto;html=1;fontSize=18;" edge="1" parent="oCzIXGEJWpw0EqeHiXk8-1" source="xpMIP8xPs-46pkh7QjJu-11">
          <mxGeometry relative="1" as="geometry">
            <mxPoint x="492" y="650" as="targetPoint" />
          </mxGeometry>
        </mxCell>
        <mxCell id="xpMIP8xPs-46pkh7QjJu-11" value="1" style="text;html=1;align=center;verticalAlign=middle;resizable=0;points=[];autosize=1;strokeColor=none;fillColor=none;fontSize=18;" vertex="1" parent="oCzIXGEJWpw0EqeHiXk8-1">
          <mxGeometry x="477" y="670" width="30" height="30" as="geometry" />
        </mxCell>
        <mxCell id="xpMIP8xPs-46pkh7QjJu-12" value=";" style="text;html=1;align=center;verticalAlign=middle;resizable=0;points=[];autosize=1;strokeColor=none;fillColor=none;fontSize=18;" vertex="1" parent="oCzIXGEJWpw0EqeHiXk8-1">
          <mxGeometry x="496" y="670" width="20" height="30" as="geometry" />
        </mxCell>
        <mxCell id="xpMIP8xPs-46pkh7QjJu-13" value="&lt;b&gt;&lt;font color=&quot;#ff0000&quot;&gt;}&lt;/font&gt;&lt;/b&gt;" style="text;html=1;align=center;verticalAlign=middle;resizable=0;points=[];autosize=1;strokeColor=none;fillColor=none;fontSize=18;" vertex="1" parent="oCzIXGEJWpw0EqeHiXk8-1">
          <mxGeometry x="516" y="670" width="20" height="30" as="geometry" />
        </mxCell>
        <mxCell id="xpMIP8xPs-46pkh7QjJu-14" value="&lt;b&gt;&lt;font color=&quot;#ff0000&quot;&gt;else&lt;/font&gt;&lt;/b&gt;" style="text;html=1;align=center;verticalAlign=middle;resizable=0;points=[];autosize=1;strokeColor=none;fillColor=none;fontSize=18;" vertex="1" parent="oCzIXGEJWpw0EqeHiXk8-1">
          <mxGeometry x="537" y="670" width="50" height="30" as="geometry" />
        </mxCell>
        <mxCell id="xpMIP8xPs-46pkh7QjJu-15" value="&lt;b&gt;&lt;font color=&quot;#ff0000&quot;&gt;{&lt;/font&gt;&lt;/b&gt;" style="text;html=1;align=center;verticalAlign=middle;resizable=0;points=[];autosize=1;strokeColor=none;fillColor=none;fontSize=18;" vertex="1" parent="oCzIXGEJWpw0EqeHiXk8-1">
          <mxGeometry x="597" y="670" width="20" height="30" as="geometry" />
        </mxCell>
        <mxCell id="hvjF6L6cixMpKaAnRMvE-18" style="edgeStyle=orthogonalEdgeStyle;rounded=0;orthogonalLoop=1;jettySize=auto;html=1;fontSize=18;" edge="1" parent="oCzIXGEJWpw0EqeHiXk8-1" source="xpMIP8xPs-46pkh7QjJu-16">
          <mxGeometry relative="1" as="geometry">
            <mxPoint x="632" y="610" as="targetPoint" />
          </mxGeometry>
        </mxCell>
        <mxCell id="xpMIP8xPs-46pkh7QjJu-16" value="x" style="text;html=1;align=center;verticalAlign=middle;resizable=0;points=[];autosize=1;strokeColor=none;fillColor=none;fontSize=18;" vertex="1" parent="oCzIXGEJWpw0EqeHiXk8-1">
          <mxGeometry x="622" y="670" width="20" height="30" as="geometry" />
        </mxCell>
        <mxCell id="xpMIP8xPs-46pkh7QjJu-17" value="=" style="text;html=1;align=center;verticalAlign=middle;resizable=0;points=[];autosize=1;strokeColor=none;fillColor=none;fontSize=18;" vertex="1" parent="oCzIXGEJWpw0EqeHiXk8-1">
          <mxGeometry x="652" y="670" width="30" height="30" as="geometry" />
        </mxCell>
        <mxCell id="xpMIP8xPs-46pkh7QjJu-18" value="y" style="text;html=1;align=center;verticalAlign=middle;resizable=0;points=[];autosize=1;strokeColor=none;fillColor=none;fontSize=18;" vertex="1" parent="oCzIXGEJWpw0EqeHiXk8-1">
          <mxGeometry x="682" y="670" width="20" height="30" as="geometry" />
        </mxCell>
        <mxCell id="JqXClAUXlKrC8S82gKWU-4" style="edgeStyle=orthogonalEdgeStyle;rounded=0;orthogonalLoop=1;jettySize=auto;html=1;fontSize=18;fontColor=#FF0000;strokeColor=#000000;fillColor=#FF0505;" edge="1" parent="oCzIXGEJWpw0EqeHiXk8-1" source="xpMIP8xPs-46pkh7QjJu-21" target="hvjF6L6cixMpKaAnRMvE-26">
          <mxGeometry relative="1" as="geometry">
            <mxPoint x="717" y="480" as="targetPoint" />
            <Array as="points">
              <mxPoint x="717" y="475" />
            </Array>
          </mxGeometry>
        </mxCell>
        <mxCell id="xpMIP8xPs-46pkh7QjJu-21" value=";" style="text;html=1;align=center;verticalAlign=middle;resizable=0;points=[];autosize=1;strokeColor=none;fillColor=none;fontSize=18;" vertex="1" parent="oCzIXGEJWpw0EqeHiXk8-1">
          <mxGeometry x="707" y="670" width="20" height="30" as="geometry" />
        </mxCell>
        <mxCell id="xpMIP8xPs-46pkh7QjJu-29" value="&lt;b&gt;&lt;font color=&quot;#ff0000&quot;&gt;}&lt;/font&gt;&lt;/b&gt;" style="text;html=1;align=center;verticalAlign=middle;resizable=0;points=[];autosize=1;strokeColor=none;fillColor=none;fontSize=18;" vertex="1" parent="oCzIXGEJWpw0EqeHiXk8-1">
          <mxGeometry x="721" y="670" width="20" height="30" as="geometry" />
        </mxCell>
        <mxCell id="xpMIP8xPs-46pkh7QjJu-31" value="X" style="text;html=1;align=center;verticalAlign=middle;resizable=0;points=[];autosize=1;strokeColor=none;fillColor=none;fontSize=18;" vertex="1" parent="oCzIXGEJWpw0EqeHiXk8-1">
          <mxGeometry x="152" y="610" width="30" height="30" as="geometry" />
        </mxCell>
        <mxCell id="xpMIP8xPs-46pkh7QjJu-40" style="edgeStyle=orthogonalEdgeStyle;rounded=0;orthogonalLoop=1;jettySize=auto;html=1;fontSize=18;" edge="1" parent="oCzIXGEJWpw0EqeHiXk8-1" source="xpMIP8xPs-46pkh7QjJu-34">
          <mxGeometry relative="1" as="geometry">
            <mxPoint x="212" y="530" as="targetPoint" />
          </mxGeometry>
        </mxCell>
        <mxCell id="xpMIP8xPs-46pkh7QjJu-34" value="COp" style="text;html=1;align=center;verticalAlign=middle;resizable=0;points=[];autosize=1;strokeColor=none;fillColor=none;fontSize=18;" vertex="1" parent="oCzIXGEJWpw0EqeHiXk8-1">
          <mxGeometry x="187" y="610" width="50" height="30" as="geometry" />
        </mxCell>
        <mxCell id="xpMIP8xPs-46pkh7QjJu-37" style="edgeStyle=orthogonalEdgeStyle;rounded=0;orthogonalLoop=1;jettySize=auto;html=1;fontSize=18;" edge="1" parent="oCzIXGEJWpw0EqeHiXk8-1" source="xpMIP8xPs-46pkh7QjJu-36">
          <mxGeometry relative="1" as="geometry">
            <mxPoint x="252" y="580" as="targetPoint" />
          </mxGeometry>
        </mxCell>
        <mxCell id="xpMIP8xPs-46pkh7QjJu-36" value="N" style="text;html=1;align=center;verticalAlign=middle;resizable=0;points=[];autosize=1;strokeColor=none;fillColor=none;fontSize=18;" vertex="1" parent="oCzIXGEJWpw0EqeHiXk8-1">
          <mxGeometry x="237" y="610" width="30" height="30" as="geometry" />
        </mxCell>
        <mxCell id="xpMIP8xPs-46pkh7QjJu-38" value="T" style="text;html=1;align=center;verticalAlign=middle;resizable=0;points=[];autosize=1;strokeColor=none;fillColor=none;fontSize=18;" vertex="1" parent="oCzIXGEJWpw0EqeHiXk8-1">
          <mxGeometry x="237" y="550" width="30" height="30" as="geometry" />
        </mxCell>
        <mxCell id="xpMIP8xPs-46pkh7QjJu-39" value="" style="endArrow=classic;html=1;rounded=0;fontSize=18;" edge="1" parent="oCzIXGEJWpw0EqeHiXk8-1">
          <mxGeometry width="50" height="50" relative="1" as="geometry">
            <mxPoint x="177" y="610" as="sourcePoint" />
            <mxPoint x="207" y="530" as="targetPoint" />
          </mxGeometry>
        </mxCell>
        <mxCell id="xpMIP8xPs-46pkh7QjJu-42" value="" style="endArrow=classic;html=1;rounded=0;fontSize=18;" edge="1" parent="oCzIXGEJWpw0EqeHiXk8-1">
          <mxGeometry width="50" height="50" relative="1" as="geometry">
            <mxPoint x="247" y="550" as="sourcePoint" />
            <mxPoint x="217" y="530" as="targetPoint" />
          </mxGeometry>
        </mxCell>
        <mxCell id="xpMIP8xPs-46pkh7QjJu-43" value="CS" style="text;html=1;align=center;verticalAlign=middle;resizable=0;points=[];autosize=1;strokeColor=none;fillColor=none;fontSize=18;" vertex="1" parent="oCzIXGEJWpw0EqeHiXk8-1">
          <mxGeometry x="192" y="500" width="40" height="30" as="geometry" />
        </mxCell>
        <mxCell id="xpMIP8xPs-46pkh7QjJu-45" value="X" style="text;html=1;align=center;verticalAlign=middle;resizable=0;points=[];autosize=1;strokeColor=none;fillColor=none;fontSize=18;" vertex="1" parent="oCzIXGEJWpw0EqeHiXk8-1">
          <mxGeometry x="307" y="610" width="30" height="30" as="geometry" />
        </mxCell>
        <mxCell id="xpMIP8xPs-46pkh7QjJu-61" style="edgeStyle=orthogonalEdgeStyle;rounded=0;orthogonalLoop=1;jettySize=auto;html=1;fontSize=18;" edge="1" parent="oCzIXGEJWpw0EqeHiXk8-1" source="xpMIP8xPs-46pkh7QjJu-47">
          <mxGeometry relative="1" as="geometry">
            <mxPoint x="397" y="580" as="targetPoint" />
          </mxGeometry>
        </mxCell>
        <mxCell id="xpMIP8xPs-46pkh7QjJu-47" value="X" style="text;html=1;align=center;verticalAlign=middle;resizable=0;points=[];autosize=1;strokeColor=none;fillColor=none;fontSize=18;" vertex="1" parent="oCzIXGEJWpw0EqeHiXk8-1">
          <mxGeometry x="382" y="610" width="30" height="30" as="geometry" />
        </mxCell>
        <mxCell id="hvjF6L6cixMpKaAnRMvE-1" style="edgeStyle=orthogonalEdgeStyle;rounded=0;orthogonalLoop=1;jettySize=auto;html=1;fontSize=18;" edge="1" parent="oCzIXGEJWpw0EqeHiXk8-1" source="xpMIP8xPs-46pkh7QjJu-48">
          <mxGeometry relative="1" as="geometry">
            <mxPoint x="446" y="490" as="targetPoint" />
          </mxGeometry>
        </mxCell>
        <mxCell id="xpMIP8xPs-46pkh7QjJu-48" value="AOp" style="text;html=1;align=center;verticalAlign=middle;resizable=0;points=[];autosize=1;strokeColor=none;fillColor=none;fontSize=18;" vertex="1" parent="oCzIXGEJWpw0EqeHiXk8-1">
          <mxGeometry x="421" y="610" width="50" height="30" as="geometry" />
        </mxCell>
        <mxCell id="xpMIP8xPs-46pkh7QjJu-57" style="edgeStyle=orthogonalEdgeStyle;rounded=0;orthogonalLoop=1;jettySize=auto;html=1;fontSize=18;" edge="1" parent="oCzIXGEJWpw0EqeHiXk8-1" source="xpMIP8xPs-46pkh7QjJu-55">
          <mxGeometry relative="1" as="geometry">
            <mxPoint x="492" y="600" as="targetPoint" />
          </mxGeometry>
        </mxCell>
        <mxCell id="xpMIP8xPs-46pkh7QjJu-55" value="N" style="text;html=1;align=center;verticalAlign=middle;resizable=0;points=[];autosize=1;strokeColor=none;fillColor=none;fontSize=18;" vertex="1" parent="oCzIXGEJWpw0EqeHiXk8-1">
          <mxGeometry x="477" y="620" width="30" height="30" as="geometry" />
        </mxCell>
        <mxCell id="xpMIP8xPs-46pkh7QjJu-59" style="edgeStyle=orthogonalEdgeStyle;rounded=0;orthogonalLoop=1;jettySize=auto;html=1;fontSize=18;" edge="1" parent="oCzIXGEJWpw0EqeHiXk8-1" source="xpMIP8xPs-46pkh7QjJu-58">
          <mxGeometry relative="1" as="geometry">
            <mxPoint x="492" y="550" as="targetPoint" />
          </mxGeometry>
        </mxCell>
        <mxCell id="xpMIP8xPs-46pkh7QjJu-58" value="T" style="text;html=1;align=center;verticalAlign=middle;resizable=0;points=[];autosize=1;strokeColor=none;fillColor=none;fontSize=18;" vertex="1" parent="oCzIXGEJWpw0EqeHiXk8-1">
          <mxGeometry x="477" y="570" width="30" height="30" as="geometry" />
        </mxCell>
        <mxCell id="xpMIP8xPs-46pkh7QjJu-60" value="E" style="text;html=1;align=center;verticalAlign=middle;resizable=0;points=[];autosize=1;strokeColor=none;fillColor=none;fontSize=18;" vertex="1" parent="oCzIXGEJWpw0EqeHiXk8-1">
          <mxGeometry x="477" y="520" width="30" height="30" as="geometry" />
        </mxCell>
        <mxCell id="xpMIP8xPs-46pkh7QjJu-62" value="T" style="text;html=1;align=center;verticalAlign=middle;resizable=0;points=[];autosize=1;strokeColor=none;fillColor=none;fontSize=18;" vertex="1" parent="oCzIXGEJWpw0EqeHiXk8-1">
          <mxGeometry x="382" y="550" width="30" height="30" as="geometry" />
        </mxCell>
        <mxCell id="hvjF6L6cixMpKaAnRMvE-0" value="" style="endArrow=classic;html=1;rounded=0;fontSize=18;" edge="1" parent="oCzIXGEJWpw0EqeHiXk8-1">
          <mxGeometry width="50" height="50" relative="1" as="geometry">
            <mxPoint x="397" y="550" as="sourcePoint" />
            <mxPoint x="437" y="490" as="targetPoint" />
          </mxGeometry>
        </mxCell>
        <mxCell id="hvjF6L6cixMpKaAnRMvE-2" value="" style="endArrow=classic;html=1;rounded=0;fontSize=18;" edge="1" parent="oCzIXGEJWpw0EqeHiXk8-1">
          <mxGeometry width="50" height="50" relative="1" as="geometry">
            <mxPoint x="487" y="520" as="sourcePoint" />
            <mxPoint x="457" y="490" as="targetPoint" />
          </mxGeometry>
        </mxCell>
        <mxCell id="hvjF6L6cixMpKaAnRMvE-4" style="edgeStyle=orthogonalEdgeStyle;rounded=0;orthogonalLoop=1;jettySize=auto;html=1;fontSize=18;" edge="1" parent="oCzIXGEJWpw0EqeHiXk8-1" source="hvjF6L6cixMpKaAnRMvE-3" target="hvjF6L6cixMpKaAnRMvE-5">
          <mxGeometry relative="1" as="geometry">
            <mxPoint x="377" y="390" as="targetPoint" />
          </mxGeometry>
        </mxCell>
        <mxCell id="hvjF6L6cixMpKaAnRMvE-3" value="S" style="text;html=1;align=center;verticalAlign=middle;resizable=0;points=[];autosize=1;strokeColor=none;fillColor=none;fontSize=18;" vertex="1" parent="oCzIXGEJWpw0EqeHiXk8-1">
          <mxGeometry x="362" y="410" width="30" height="30" as="geometry" />
        </mxCell>
        <mxCell id="D9uyjPMeh7Idh-ZuBk3Q-5" style="edgeStyle=orthogonalEdgeStyle;rounded=0;orthogonalLoop=1;jettySize=auto;html=1;fontSize=18;strokeColor=#FF0000;" edge="1" parent="oCzIXGEJWpw0EqeHiXk8-1" source="hvjF6L6cixMpKaAnRMvE-5">
          <mxGeometry relative="1" as="geometry">
            <mxPoint x="377" y="240" as="targetPoint" />
          </mxGeometry>
        </mxCell>
        <mxCell id="hvjF6L6cixMpKaAnRMvE-5" value="&lt;font color=&quot;#ff0000&quot;&gt;&lt;b&gt;CB&lt;/b&gt;&lt;/font&gt;" style="text;html=1;align=center;verticalAlign=middle;resizable=0;points=[];autosize=1;strokeColor=none;fillColor=none;fontSize=18;" vertex="1" parent="oCzIXGEJWpw0EqeHiXk8-1">
          <mxGeometry x="357" y="350" width="40" height="30" as="geometry" />
        </mxCell>
        <mxCell id="hvjF6L6cixMpKaAnRMvE-6" value="E" style="text;html=1;align=center;verticalAlign=middle;resizable=0;points=[];autosize=1;strokeColor=none;fillColor=none;fontSize=18;" vertex="1" parent="oCzIXGEJWpw0EqeHiXk8-1">
          <mxGeometry x="431" y="460" width="30" height="30" as="geometry" />
        </mxCell>
        <mxCell id="hvjF6L6cixMpKaAnRMvE-7" value="" style="endArrow=classic;html=1;rounded=0;fontSize=18;exitX=0.467;exitY=-0.033;exitDx=0;exitDy=0;exitPerimeter=0;" edge="1" parent="oCzIXGEJWpw0EqeHiXk8-1" source="xpMIP8xPs-46pkh7QjJu-45">
          <mxGeometry width="50" height="50" relative="1" as="geometry">
            <mxPoint x="317" y="610" as="sourcePoint" />
            <mxPoint x="367" y="440" as="targetPoint" />
          </mxGeometry>
        </mxCell>
        <mxCell id="hvjF6L6cixMpKaAnRMvE-8" value="" style="endArrow=classic;html=1;rounded=0;fontSize=18;" edge="1" parent="oCzIXGEJWpw0EqeHiXk8-1">
          <mxGeometry width="50" height="50" relative="1" as="geometry">
            <mxPoint x="357" y="670" as="sourcePoint" />
            <mxPoint x="377" y="440" as="targetPoint" />
          </mxGeometry>
        </mxCell>
        <mxCell id="hvjF6L6cixMpKaAnRMvE-9" value="" style="endArrow=classic;html=1;rounded=0;fontSize=18;" edge="1" parent="oCzIXGEJWpw0EqeHiXk8-1">
          <mxGeometry width="50" height="50" relative="1" as="geometry">
            <mxPoint x="437" y="470" as="sourcePoint" />
            <mxPoint x="387" y="440" as="targetPoint" />
          </mxGeometry>
        </mxCell>
        <mxCell id="hvjF6L6cixMpKaAnRMvE-12" style="edgeStyle=orthogonalEdgeStyle;rounded=0;orthogonalLoop=1;jettySize=auto;html=1;fontSize=18;" edge="1" parent="oCzIXGEJWpw0EqeHiXk8-1">
          <mxGeometry relative="1" as="geometry">
            <mxPoint x="692" y="650" as="targetPoint" />
            <mxPoint x="692" y="670" as="sourcePoint" />
          </mxGeometry>
        </mxCell>
        <mxCell id="hvjF6L6cixMpKaAnRMvE-13" style="edgeStyle=orthogonalEdgeStyle;rounded=0;orthogonalLoop=1;jettySize=auto;html=1;fontSize=18;" edge="1" parent="oCzIXGEJWpw0EqeHiXk8-1" source="hvjF6L6cixMpKaAnRMvE-14">
          <mxGeometry relative="1" as="geometry">
            <mxPoint x="692" y="600" as="targetPoint" />
          </mxGeometry>
        </mxCell>
        <mxCell id="hvjF6L6cixMpKaAnRMvE-14" value="X" style="text;html=1;align=center;verticalAlign=middle;resizable=0;points=[];autosize=1;strokeColor=none;fillColor=none;fontSize=18;" vertex="1" parent="oCzIXGEJWpw0EqeHiXk8-1">
          <mxGeometry x="677" y="620" width="30" height="30" as="geometry" />
        </mxCell>
        <mxCell id="hvjF6L6cixMpKaAnRMvE-15" style="edgeStyle=orthogonalEdgeStyle;rounded=0;orthogonalLoop=1;jettySize=auto;html=1;fontSize=18;" edge="1" parent="oCzIXGEJWpw0EqeHiXk8-1" source="hvjF6L6cixMpKaAnRMvE-16">
          <mxGeometry relative="1" as="geometry">
            <mxPoint x="692" y="550" as="targetPoint" />
          </mxGeometry>
        </mxCell>
        <mxCell id="hvjF6L6cixMpKaAnRMvE-16" value="T" style="text;html=1;align=center;verticalAlign=middle;resizable=0;points=[];autosize=1;strokeColor=none;fillColor=none;fontSize=18;" vertex="1" parent="oCzIXGEJWpw0EqeHiXk8-1">
          <mxGeometry x="677" y="570" width="30" height="30" as="geometry" />
        </mxCell>
        <mxCell id="hvjF6L6cixMpKaAnRMvE-17" value="E" style="text;html=1;align=center;verticalAlign=middle;resizable=0;points=[];autosize=1;strokeColor=none;fillColor=none;fontSize=18;" vertex="1" parent="oCzIXGEJWpw0EqeHiXk8-1">
          <mxGeometry x="677" y="520" width="30" height="30" as="geometry" />
        </mxCell>
        <mxCell id="hvjF6L6cixMpKaAnRMvE-19" value="X" style="text;html=1;align=center;verticalAlign=middle;resizable=0;points=[];autosize=1;strokeColor=none;fillColor=none;fontSize=18;" vertex="1" parent="oCzIXGEJWpw0EqeHiXk8-1">
          <mxGeometry x="617" y="580" width="30" height="30" as="geometry" />
        </mxCell>
        <mxCell id="hvjF6L6cixMpKaAnRMvE-20" value="" style="endArrow=classic;html=1;rounded=0;fontSize=18;exitX=0.467;exitY=-0.033;exitDx=0;exitDy=0;exitPerimeter=0;" edge="1" parent="oCzIXGEJWpw0EqeHiXk8-1">
          <mxGeometry width="50" height="50" relative="1" as="geometry">
            <mxPoint x="631.01" y="579.01" as="sourcePoint" />
            <mxPoint x="647" y="490" as="targetPoint" />
          </mxGeometry>
        </mxCell>
        <mxCell id="hvjF6L6cixMpKaAnRMvE-22" value="" style="endArrow=classic;html=1;rounded=0;fontSize=18;exitX=0.5;exitY=0;exitDx=0;exitDy=0;exitPerimeter=0;" edge="1" parent="oCzIXGEJWpw0EqeHiXk8-1" source="xpMIP8xPs-46pkh7QjJu-17">
          <mxGeometry width="50" height="50" relative="1" as="geometry">
            <mxPoint x="641.01" y="589.01" as="sourcePoint" />
            <mxPoint x="657" y="490" as="targetPoint" />
          </mxGeometry>
        </mxCell>
        <mxCell id="hvjF6L6cixMpKaAnRMvE-23" value="" style="endArrow=classic;html=1;rounded=0;fontSize=18;exitX=0.3;exitY=-0.133;exitDx=0;exitDy=0;exitPerimeter=0;" edge="1" parent="oCzIXGEJWpw0EqeHiXk8-1" source="hvjF6L6cixMpKaAnRMvE-17">
          <mxGeometry width="50" height="50" relative="1" as="geometry">
            <mxPoint x="651.01" y="599.01" as="sourcePoint" />
            <mxPoint x="667" y="490" as="targetPoint" />
          </mxGeometry>
        </mxCell>
        <mxCell id="hvjF6L6cixMpKaAnRMvE-25" style="edgeStyle=orthogonalEdgeStyle;rounded=0;orthogonalLoop=1;jettySize=auto;html=1;fontSize=18;" edge="1" parent="oCzIXGEJWpw0EqeHiXk8-1" source="hvjF6L6cixMpKaAnRMvE-26" target="hvjF6L6cixMpKaAnRMvE-27">
          <mxGeometry relative="1" as="geometry">
            <mxPoint x="657" y="440" as="targetPoint" />
          </mxGeometry>
        </mxCell>
        <mxCell id="hvjF6L6cixMpKaAnRMvE-26" value="S" style="text;html=1;align=center;verticalAlign=middle;resizable=0;points=[];autosize=1;strokeColor=none;fillColor=none;fontSize=18;" vertex="1" parent="oCzIXGEJWpw0EqeHiXk8-1">
          <mxGeometry x="642" y="460" width="30" height="30" as="geometry" />
        </mxCell>
        <mxCell id="hvjF6L6cixMpKaAnRMvE-27" value="&lt;b&gt;&lt;font color=&quot;#ff0000&quot;&gt;CB&lt;/font&gt;&lt;/b&gt;" style="text;html=1;align=center;verticalAlign=middle;resizable=0;points=[];autosize=1;strokeColor=none;fillColor=none;fontSize=18;" vertex="1" parent="oCzIXGEJWpw0EqeHiXk8-1">
          <mxGeometry x="637" y="400" width="40" height="30" as="geometry" />
        </mxCell>
        <mxCell id="D9uyjPMeh7Idh-ZuBk3Q-0" value="" style="endArrow=classic;html=1;rounded=0;fontSize=18;exitX=0.467;exitY=-0.033;exitDx=0;exitDy=0;exitPerimeter=0;" edge="1" parent="oCzIXGEJWpw0EqeHiXk8-1">
          <mxGeometry width="50" height="50" relative="1" as="geometry">
            <mxPoint x="101.00999999999999" y="669.01" as="sourcePoint" />
            <mxPoint x="137" y="410" as="targetPoint" />
          </mxGeometry>
        </mxCell>
        <mxCell id="D9uyjPMeh7Idh-ZuBk3Q-1" value="" style="endArrow=classic;html=1;rounded=0;fontSize=18;exitX=0.467;exitY=-0.033;exitDx=0;exitDy=0;exitPerimeter=0;" edge="1" parent="oCzIXGEJWpw0EqeHiXk8-1">
          <mxGeometry width="50" height="50" relative="1" as="geometry">
            <mxPoint x="136.01" y="669.01" as="sourcePoint" />
            <mxPoint x="147" y="410" as="targetPoint" />
          </mxGeometry>
        </mxCell>
        <mxCell id="D9uyjPMeh7Idh-ZuBk3Q-2" value="" style="endArrow=classic;html=1;rounded=0;fontSize=18;exitX=0.475;exitY=-0.067;exitDx=0;exitDy=0;exitPerimeter=0;" edge="1" parent="oCzIXGEJWpw0EqeHiXk8-1" source="xpMIP8xPs-46pkh7QjJu-43">
          <mxGeometry width="50" height="50" relative="1" as="geometry">
            <mxPoint x="217" y="500" as="sourcePoint" />
            <mxPoint x="157" y="410" as="targetPoint" />
          </mxGeometry>
        </mxCell>
        <mxCell id="D9uyjPMeh7Idh-ZuBk3Q-4" value="&lt;b&gt;&lt;font color=&quot;#ff0000&quot;&gt;IFS&lt;/font&gt;&lt;/b&gt;" style="text;html=1;align=center;verticalAlign=middle;resizable=0;points=[];autosize=1;strokeColor=none;fillColor=none;fontSize=18;" vertex="1" parent="oCzIXGEJWpw0EqeHiXk8-1">
          <mxGeometry x="127" y="380" width="40" height="30" as="geometry" />
        </mxCell>
        <mxCell id="D9uyjPMeh7Idh-ZuBk3Q-7" value="" style="endArrow=classic;html=1;rounded=0;fontSize=18;exitX=0.467;exitY=-0.033;exitDx=0;exitDy=0;exitPerimeter=0;strokeColor=#FF0000;fillColor=#FF0505;" edge="1" parent="oCzIXGEJWpw0EqeHiXk8-1">
          <mxGeometry width="50" height="50" relative="1" as="geometry">
            <mxPoint x="296.01" y="669.01" as="sourcePoint" />
            <mxPoint x="357" y="240" as="targetPoint" />
            <Array as="points">
              <mxPoint x="296" y="290" />
            </Array>
          </mxGeometry>
        </mxCell>
        <mxCell id="D9uyjPMeh7Idh-ZuBk3Q-8" value="" style="endArrow=classic;html=1;rounded=0;fontSize=18;exitX=0.5;exitY=0;exitDx=0;exitDy=0;exitPerimeter=0;strokeColor=#FF0000;" edge="1" parent="oCzIXGEJWpw0EqeHiXk8-1" source="xpMIP8xPs-46pkh7QjJu-13">
          <mxGeometry width="50" height="50" relative="1" as="geometry">
            <mxPoint x="507" y="450" as="sourcePoint" />
            <mxPoint x="387" y="240" as="targetPoint" />
            <Array as="points">
              <mxPoint x="526" y="330" />
            </Array>
          </mxGeometry>
        </mxCell>
        <mxCell id="D9uyjPMeh7Idh-ZuBk3Q-9" value="" style="endArrow=classic;html=1;rounded=0;fontSize=18;exitX=0.467;exitY=-0.033;exitDx=0;exitDy=0;exitPerimeter=0;strokeColor=#FF0000;" edge="1" parent="oCzIXGEJWpw0EqeHiXk8-1">
          <mxGeometry width="50" height="50" relative="1" as="geometry">
            <mxPoint x="147" y="380" as="sourcePoint" />
            <mxPoint x="337" y="240" as="targetPoint" />
          </mxGeometry>
        </mxCell>
        <mxCell id="D9uyjPMeh7Idh-ZuBk3Q-10" value="" style="endArrow=classic;html=1;rounded=0;fontSize=18;exitX=0.5;exitY=0;exitDx=0;exitDy=0;exitPerimeter=0;strokeColor=#FF0000;" edge="1" parent="oCzIXGEJWpw0EqeHiXk8-1">
          <mxGeometry width="50" height="50" relative="1" as="geometry">
            <mxPoint x="560" y="670" as="sourcePoint" />
            <mxPoint x="407" y="240" as="targetPoint" />
            <Array as="points">
              <mxPoint x="560" y="330" />
            </Array>
          </mxGeometry>
        </mxCell>
        <mxCell id="D9uyjPMeh7Idh-ZuBk3Q-11" value="" style="endArrow=classic;html=1;rounded=0;fontSize=18;exitX=0.5;exitY=0;exitDx=0;exitDy=0;exitPerimeter=0;strokeColor=#FF0000;" edge="1" parent="oCzIXGEJWpw0EqeHiXk8-1">
          <mxGeometry width="50" height="50" relative="1" as="geometry">
            <mxPoint x="610" y="670" as="sourcePoint" />
            <mxPoint x="427" y="240" as="targetPoint" />
            <Array as="points">
              <mxPoint x="610" y="330" />
            </Array>
          </mxGeometry>
        </mxCell>
        <mxCell id="D9uyjPMeh7Idh-ZuBk3Q-12" value="" style="endArrow=classic;html=1;rounded=0;fontSize=18;exitX=0.475;exitY=-0.167;exitDx=0;exitDy=0;exitPerimeter=0;strokeColor=#FF0000;" edge="1" parent="oCzIXGEJWpw0EqeHiXk8-1" source="hvjF6L6cixMpKaAnRMvE-27">
          <mxGeometry width="50" height="50" relative="1" as="geometry">
            <mxPoint x="647" y="670" as="sourcePoint" />
            <mxPoint x="447" y="240" as="targetPoint" />
            <Array as="points">
              <mxPoint x="657" y="330" />
            </Array>
          </mxGeometry>
        </mxCell>
        <mxCell id="D9uyjPMeh7Idh-ZuBk3Q-13" value="" style="endArrow=classic;html=1;rounded=0;fontSize=18;exitX=0.5;exitY=0;exitDx=0;exitDy=0;exitPerimeter=0;strokeColor=#FF0000;" edge="1" parent="oCzIXGEJWpw0EqeHiXk8-1">
          <mxGeometry width="50" height="50" relative="1" as="geometry">
            <mxPoint x="727" y="670" as="sourcePoint" />
            <mxPoint x="467" y="240" as="targetPoint" />
            <Array as="points">
              <mxPoint x="727" y="330" />
            </Array>
          </mxGeometry>
        </mxCell>
        <mxCell id="D9uyjPMeh7Idh-ZuBk3Q-15" style="edgeStyle=orthogonalEdgeStyle;rounded=0;orthogonalLoop=1;jettySize=auto;html=1;fontSize=18;fontColor=#FF0000;strokeColor=#000000;fillColor=#FF0505;" edge="1" parent="oCzIXGEJWpw0EqeHiXk8-1" source="D9uyjPMeh7Idh-ZuBk3Q-14">
          <mxGeometry relative="1" as="geometry">
            <mxPoint x="397" y="150" as="targetPoint" />
          </mxGeometry>
        </mxCell>
        <mxCell id="D9uyjPMeh7Idh-ZuBk3Q-14" value="&lt;b&gt;SELECT&lt;/b&gt;" style="text;html=1;align=center;verticalAlign=middle;resizable=0;points=[];autosize=1;strokeColor=none;fillColor=none;fontSize=18;" vertex="1" parent="oCzIXGEJWpw0EqeHiXk8-1">
          <mxGeometry x="352" y="200" width="90" height="30" as="geometry" />
        </mxCell>
        <mxCell id="D9uyjPMeh7Idh-ZuBk3Q-17" style="edgeStyle=orthogonalEdgeStyle;rounded=0;orthogonalLoop=1;jettySize=auto;html=1;fontSize=18;fontColor=#FF0000;strokeColor=#000000;fillColor=#FF0505;" edge="1" parent="oCzIXGEJWpw0EqeHiXk8-1" source="D9uyjPMeh7Idh-ZuBk3Q-16">
          <mxGeometry relative="1" as="geometry">
            <mxPoint x="397" y="70" as="targetPoint" />
          </mxGeometry>
        </mxCell>
        <mxCell id="D9uyjPMeh7Idh-ZuBk3Q-16" value="&lt;b&gt;S&lt;/b&gt;" style="text;html=1;align=center;verticalAlign=middle;resizable=0;points=[];autosize=1;strokeColor=none;fillColor=none;fontSize=18;" vertex="1" parent="oCzIXGEJWpw0EqeHiXk8-1">
          <mxGeometry x="382" y="120" width="30" height="30" as="geometry" />
        </mxCell>
        <mxCell id="D9uyjPMeh7Idh-ZuBk3Q-18" value="&lt;b&gt;P&lt;/b&gt;" style="text;html=1;align=center;verticalAlign=middle;resizable=0;points=[];autosize=1;strokeColor=none;fillColor=none;fontSize=18;" vertex="1" parent="oCzIXGEJWpw0EqeHiXk8-1">
          <mxGeometry x="382" y="40" width="30" height="30" as="geometry" />
        </mxCell>
        <mxCell id="JqXClAUXlKrC8S82gKWU-0" style="edgeStyle=orthogonalEdgeStyle;rounded=0;orthogonalLoop=1;jettySize=auto;html=1;fontSize=18;exitX=0.4;exitY=-0.083;exitDx=0;exitDy=0;exitPerimeter=0;" edge="1" parent="oCzIXGEJWpw0EqeHiXk8-1" source="xpMIP8xPs-46pkh7QjJu-12">
          <mxGeometry relative="1" as="geometry">
            <mxPoint x="387" y="430" as="targetPoint" />
            <mxPoint x="497" y="690" as="sourcePoint" />
            <Array as="points">
              <mxPoint x="504" y="430" />
            </Array>
          </mxGeometry>
        </mxCell>
      </root>
    </mxGraphModel>
  </diagram>
  <diagram id="NYWkbfAJQrX5qpHdSgZC" name="Expression 3">
    <mxGraphModel dx="1186" dy="646" grid="1" gridSize="10" guides="1" tooltips="1" connect="1" arrows="1" fold="1" page="1" pageScale="1" pageWidth="827" pageHeight="1169" math="0" shadow="0">
      <root>
        <mxCell id="Ivp7XSNdGWLuYwFV0-WS-0" />
        <mxCell id="Ivp7XSNdGWLuYwFV0-WS-1" parent="Ivp7XSNdGWLuYwFV0-WS-0" />
        <mxCell id="p8ysp5Qv1cWSzB2e6rz6-0" value="&lt;b&gt;&lt;font color=&quot;#ff0000&quot;&gt;while&lt;/font&gt;&lt;/b&gt;" style="text;html=1;align=center;verticalAlign=middle;resizable=0;points=[];autosize=1;strokeColor=none;fillColor=none;fontSize=18;" vertex="1" parent="Ivp7XSNdGWLuYwFV0-WS-1">
          <mxGeometry x="60" y="670" width="60" height="30" as="geometry" />
        </mxCell>
        <mxCell id="p8ysp5Qv1cWSzB2e6rz6-1" value="&lt;b&gt;&lt;font color=&quot;#ff0000&quot;&gt;(&lt;/font&gt;&lt;/b&gt;" style="text;html=1;align=center;verticalAlign=middle;resizable=0;points=[];autosize=1;strokeColor=none;fillColor=none;fontSize=18;" vertex="1" parent="Ivp7XSNdGWLuYwFV0-WS-1">
          <mxGeometry x="127" y="670" width="20" height="30" as="geometry" />
        </mxCell>
        <mxCell id="p8ysp5Qv1cWSzB2e6rz6-23" style="edgeStyle=orthogonalEdgeStyle;rounded=0;orthogonalLoop=1;jettySize=auto;html=1;fontSize=18;fontColor=#FF0000;strokeColor=#000000;fillColor=#FF0505;" edge="1" parent="Ivp7XSNdGWLuYwFV0-WS-1" source="p8ysp5Qv1cWSzB2e6rz6-2" target="cP2Veq6H7C6e9CppTrZS-0">
          <mxGeometry relative="1" as="geometry">
            <mxPoint x="167" y="640" as="targetPoint" />
          </mxGeometry>
        </mxCell>
        <mxCell id="p8ysp5Qv1cWSzB2e6rz6-2" value="x" style="text;html=1;align=center;verticalAlign=middle;resizable=0;points=[];autosize=1;strokeColor=none;fillColor=none;fontSize=18;" vertex="1" parent="Ivp7XSNdGWLuYwFV0-WS-1">
          <mxGeometry x="157" y="670" width="20" height="30" as="geometry" />
        </mxCell>
        <mxCell id="cP2Veq6H7C6e9CppTrZS-1" style="edgeStyle=orthogonalEdgeStyle;rounded=0;orthogonalLoop=1;jettySize=auto;html=1;fontSize=18;fontColor=#FF0000;strokeColor=#000000;fillColor=#FF0505;entryX=0.5;entryY=1.05;entryDx=0;entryDy=0;entryPerimeter=0;" edge="1" parent="Ivp7XSNdGWLuYwFV0-WS-1" source="p8ysp5Qv1cWSzB2e6rz6-3" target="cP2Veq6H7C6e9CppTrZS-2">
          <mxGeometry relative="1" as="geometry">
            <mxPoint x="212" y="640" as="targetPoint" />
          </mxGeometry>
        </mxCell>
        <mxCell id="p8ysp5Qv1cWSzB2e6rz6-3" value="&amp;gt;" style="text;html=1;align=center;verticalAlign=middle;resizable=0;points=[];autosize=1;strokeColor=none;fillColor=none;fontSize=18;" vertex="1" parent="Ivp7XSNdGWLuYwFV0-WS-1">
          <mxGeometry x="197" y="670" width="30" height="30" as="geometry" />
        </mxCell>
        <mxCell id="cP2Veq6H7C6e9CppTrZS-3" style="edgeStyle=orthogonalEdgeStyle;rounded=0;orthogonalLoop=1;jettySize=auto;html=1;fontSize=18;fontColor=#FF0000;strokeColor=#000000;fillColor=#FF0505;" edge="1" parent="Ivp7XSNdGWLuYwFV0-WS-1" source="p8ysp5Qv1cWSzB2e6rz6-4">
          <mxGeometry relative="1" as="geometry">
            <mxPoint x="252" y="640" as="targetPoint" />
          </mxGeometry>
        </mxCell>
        <mxCell id="p8ysp5Qv1cWSzB2e6rz6-4" value="5" style="text;html=1;align=center;verticalAlign=middle;resizable=0;points=[];autosize=1;strokeColor=none;fillColor=none;fontSize=18;" vertex="1" parent="Ivp7XSNdGWLuYwFV0-WS-1">
          <mxGeometry x="237" y="670" width="30" height="30" as="geometry" />
        </mxCell>
        <mxCell id="p8ysp5Qv1cWSzB2e6rz6-5" value="&lt;b&gt;&lt;font color=&quot;#ff0000&quot;&gt;)&lt;/font&gt;&lt;/b&gt;" style="text;html=1;align=center;verticalAlign=middle;resizable=0;points=[];autosize=1;strokeColor=none;fillColor=none;fontSize=18;" vertex="1" parent="Ivp7XSNdGWLuYwFV0-WS-1">
          <mxGeometry x="280" y="670" width="20" height="30" as="geometry" />
        </mxCell>
        <mxCell id="p8ysp5Qv1cWSzB2e6rz6-6" value="&lt;b&gt;&lt;font color=&quot;#ff0000&quot;&gt;{&lt;/font&gt;&lt;/b&gt;" style="text;html=1;align=center;verticalAlign=middle;resizable=0;points=[];autosize=1;strokeColor=none;fillColor=none;fontSize=18;" vertex="1" parent="Ivp7XSNdGWLuYwFV0-WS-1">
          <mxGeometry x="310" y="670" width="20" height="30" as="geometry" />
        </mxCell>
        <mxCell id="C7RqE1NCY2bbAgPsiyap-0" style="edgeStyle=orthogonalEdgeStyle;rounded=0;orthogonalLoop=1;jettySize=auto;html=1;fontSize=18;fontColor=#FF0000;strokeColor=#000000;fillColor=#FF0505;" edge="1" parent="Ivp7XSNdGWLuYwFV0-WS-1" source="p8ysp5Qv1cWSzB2e6rz6-7" target="C7RqE1NCY2bbAgPsiyap-1">
          <mxGeometry relative="1" as="geometry">
            <mxPoint x="345" y="470" as="targetPoint" />
          </mxGeometry>
        </mxCell>
        <mxCell id="p8ysp5Qv1cWSzB2e6rz6-7" value="x" style="text;html=1;align=center;verticalAlign=middle;resizable=0;points=[];autosize=1;strokeColor=none;fillColor=none;fontSize=18;" vertex="1" parent="Ivp7XSNdGWLuYwFV0-WS-1">
          <mxGeometry x="335" y="670" width="20" height="30" as="geometry" />
        </mxCell>
        <mxCell id="p8ysp5Qv1cWSzB2e6rz6-8" value="=" style="text;html=1;align=center;verticalAlign=middle;resizable=0;points=[];autosize=1;strokeColor=none;fillColor=none;fontSize=18;" vertex="1" parent="Ivp7XSNdGWLuYwFV0-WS-1">
          <mxGeometry x="365" y="670" width="30" height="30" as="geometry" />
        </mxCell>
        <mxCell id="C7RqE1NCY2bbAgPsiyap-2" style="edgeStyle=orthogonalEdgeStyle;rounded=0;orthogonalLoop=1;jettySize=auto;html=1;fontSize=18;fontColor=#FF0000;strokeColor=#000000;fillColor=#FF0505;entryX=0.467;entryY=1.017;entryDx=0;entryDy=0;entryPerimeter=0;" edge="1" parent="Ivp7XSNdGWLuYwFV0-WS-1" source="p8ysp5Qv1cWSzB2e6rz6-9" target="C7RqE1NCY2bbAgPsiyap-3">
          <mxGeometry relative="1" as="geometry">
            <mxPoint x="420" y="640" as="targetPoint" />
          </mxGeometry>
        </mxCell>
        <mxCell id="p8ysp5Qv1cWSzB2e6rz6-9" value="x" style="text;html=1;align=center;verticalAlign=middle;resizable=0;points=[];autosize=1;strokeColor=none;fillColor=none;fontSize=18;" vertex="1" parent="Ivp7XSNdGWLuYwFV0-WS-1">
          <mxGeometry x="410" y="670" width="20" height="30" as="geometry" />
        </mxCell>
        <mxCell id="C7RqE1NCY2bbAgPsiyap-4" style="edgeStyle=orthogonalEdgeStyle;rounded=0;orthogonalLoop=1;jettySize=auto;html=1;fontSize=18;fontColor=#FF0000;strokeColor=#000000;fillColor=#FF0505;entryX=0.48;entryY=1.083;entryDx=0;entryDy=0;entryPerimeter=0;" edge="1" parent="Ivp7XSNdGWLuYwFV0-WS-1" source="p8ysp5Qv1cWSzB2e6rz6-10" target="C7RqE1NCY2bbAgPsiyap-5">
          <mxGeometry relative="1" as="geometry">
            <mxPoint x="469" y="640" as="targetPoint" />
          </mxGeometry>
        </mxCell>
        <mxCell id="p8ysp5Qv1cWSzB2e6rz6-10" value="+" style="text;html=1;align=center;verticalAlign=middle;resizable=0;points=[];autosize=1;strokeColor=none;fillColor=none;fontSize=18;" vertex="1" parent="Ivp7XSNdGWLuYwFV0-WS-1">
          <mxGeometry x="454" y="670" width="30" height="30" as="geometry" />
        </mxCell>
        <mxCell id="C7RqE1NCY2bbAgPsiyap-6" style="edgeStyle=orthogonalEdgeStyle;rounded=0;orthogonalLoop=1;jettySize=auto;html=1;fontSize=18;fontColor=#FF0000;strokeColor=#000000;fillColor=#FF0505;" edge="1" parent="Ivp7XSNdGWLuYwFV0-WS-1" source="p8ysp5Qv1cWSzB2e6rz6-11">
          <mxGeometry relative="1" as="geometry">
            <mxPoint x="515" y="640" as="targetPoint" />
          </mxGeometry>
        </mxCell>
        <mxCell id="p8ysp5Qv1cWSzB2e6rz6-11" value="1" style="text;html=1;align=center;verticalAlign=middle;resizable=0;points=[];autosize=1;strokeColor=none;fillColor=none;fontSize=18;" vertex="1" parent="Ivp7XSNdGWLuYwFV0-WS-1">
          <mxGeometry x="500" y="670" width="30" height="30" as="geometry" />
        </mxCell>
        <mxCell id="3pvmmb-S8HhpCEGo7j11-14" style="edgeStyle=orthogonalEdgeStyle;rounded=0;orthogonalLoop=1;jettySize=auto;html=1;fontSize=18;fontColor=#FF0000;strokeColor=#000000;fillColor=#FF0505;" edge="1" parent="Ivp7XSNdGWLuYwFV0-WS-1" source="p8ysp5Qv1cWSzB2e6rz6-12">
          <mxGeometry relative="1" as="geometry">
            <mxPoint x="440" y="380" as="targetPoint" />
            <Array as="points">
              <mxPoint x="553" y="380" />
              <mxPoint x="553" y="380" />
            </Array>
          </mxGeometry>
        </mxCell>
        <mxCell id="p8ysp5Qv1cWSzB2e6rz6-12" value=";" style="text;html=1;align=center;verticalAlign=middle;resizable=0;points=[];autosize=1;strokeColor=none;fillColor=none;fontSize=18;" vertex="1" parent="Ivp7XSNdGWLuYwFV0-WS-1">
          <mxGeometry x="543" y="670" width="20" height="30" as="geometry" />
        </mxCell>
        <mxCell id="C7RqE1NCY2bbAgPsiyap-26" style="edgeStyle=orthogonalEdgeStyle;rounded=0;orthogonalLoop=1;jettySize=auto;html=1;fontSize=18;fontColor=#FF0000;strokeColor=#000000;fillColor=#FF0505;entryX=0.5;entryY=1.1;entryDx=0;entryDy=0;entryPerimeter=0;" edge="1" parent="Ivp7XSNdGWLuYwFV0-WS-1" source="p8ysp5Qv1cWSzB2e6rz6-16" target="C7RqE1NCY2bbAgPsiyap-27">
          <mxGeometry relative="1" as="geometry">
            <mxPoint x="600" y="640" as="targetPoint" />
          </mxGeometry>
        </mxCell>
        <mxCell id="p8ysp5Qv1cWSzB2e6rz6-16" value="y" style="text;html=1;align=center;verticalAlign=middle;resizable=0;points=[];autosize=1;strokeColor=none;fillColor=none;fontSize=18;" vertex="1" parent="Ivp7XSNdGWLuYwFV0-WS-1">
          <mxGeometry x="590" y="670" width="20" height="30" as="geometry" />
        </mxCell>
        <mxCell id="3pvmmb-S8HhpCEGo7j11-6" style="edgeStyle=orthogonalEdgeStyle;rounded=0;orthogonalLoop=1;jettySize=auto;html=1;fontSize=18;fontColor=#FF0000;strokeColor=#000000;fillColor=#FF0505;entryX=0.5;entryY=1.033;entryDx=0;entryDy=0;entryPerimeter=0;" edge="1" parent="Ivp7XSNdGWLuYwFV0-WS-1" source="p8ysp5Qv1cWSzB2e6rz6-17" target="3pvmmb-S8HhpCEGo7j11-9">
          <mxGeometry relative="1" as="geometry">
            <mxPoint x="635" y="460" as="targetPoint" />
          </mxGeometry>
        </mxCell>
        <mxCell id="p8ysp5Qv1cWSzB2e6rz6-17" value="=" style="text;html=1;align=center;verticalAlign=middle;resizable=0;points=[];autosize=1;strokeColor=none;fillColor=none;fontSize=18;" vertex="1" parent="Ivp7XSNdGWLuYwFV0-WS-1">
          <mxGeometry x="620" y="670" width="30" height="30" as="geometry" />
        </mxCell>
        <mxCell id="3pvmmb-S8HhpCEGo7j11-0" style="edgeStyle=orthogonalEdgeStyle;rounded=0;orthogonalLoop=1;jettySize=auto;html=1;fontSize=18;fontColor=#FF0000;strokeColor=#000000;fillColor=#FF0505;" edge="1" parent="Ivp7XSNdGWLuYwFV0-WS-1" source="p8ysp5Qv1cWSzB2e6rz6-18">
          <mxGeometry relative="1" as="geometry">
            <mxPoint x="670" y="640" as="targetPoint" />
          </mxGeometry>
        </mxCell>
        <mxCell id="p8ysp5Qv1cWSzB2e6rz6-18" value="x" style="text;html=1;align=center;verticalAlign=middle;resizable=0;points=[];autosize=1;strokeColor=none;fillColor=none;fontSize=18;" vertex="1" parent="Ivp7XSNdGWLuYwFV0-WS-1">
          <mxGeometry x="660" y="670" width="20" height="30" as="geometry" />
        </mxCell>
        <mxCell id="3g6QK0kccNvWYUkPzHAJ-0" style="edgeStyle=orthogonalEdgeStyle;rounded=0;orthogonalLoop=1;jettySize=auto;html=1;fontSize=18;fontColor=#FF0000;strokeColor=#000000;fillColor=#FF0505;entryX=1.033;entryY=0.667;entryDx=0;entryDy=0;entryPerimeter=0;" edge="1" parent="Ivp7XSNdGWLuYwFV0-WS-1" source="p8ysp5Qv1cWSzB2e6rz6-19" target="3pvmmb-S8HhpCEGo7j11-9">
          <mxGeometry relative="1" as="geometry">
            <mxPoint x="700" y="440" as="targetPoint" />
            <Array as="points">
              <mxPoint x="700" y="440" />
            </Array>
          </mxGeometry>
        </mxCell>
        <mxCell id="p8ysp5Qv1cWSzB2e6rz6-19" value=";" style="text;html=1;align=center;verticalAlign=middle;resizable=0;points=[];autosize=1;strokeColor=none;fillColor=none;fontSize=18;" vertex="1" parent="Ivp7XSNdGWLuYwFV0-WS-1">
          <mxGeometry x="690" y="670" width="20" height="30" as="geometry" />
        </mxCell>
        <mxCell id="p8ysp5Qv1cWSzB2e6rz6-20" value="&lt;b&gt;&lt;font color=&quot;#ff0000&quot;&gt;}&lt;/font&gt;&lt;/b&gt;" style="text;html=1;align=center;verticalAlign=middle;resizable=0;points=[];autosize=1;strokeColor=none;fillColor=none;fontSize=18;" vertex="1" parent="Ivp7XSNdGWLuYwFV0-WS-1">
          <mxGeometry x="720" y="670" width="20" height="30" as="geometry" />
        </mxCell>
        <mxCell id="cP2Veq6H7C6e9CppTrZS-0" value="X" style="text;html=1;align=center;verticalAlign=middle;resizable=0;points=[];autosize=1;strokeColor=none;fillColor=none;fontSize=18;" vertex="1" parent="Ivp7XSNdGWLuYwFV0-WS-1">
          <mxGeometry x="152" y="555" width="30" height="30" as="geometry" />
        </mxCell>
        <mxCell id="cP2Veq6H7C6e9CppTrZS-10" style="edgeStyle=orthogonalEdgeStyle;rounded=0;orthogonalLoop=1;jettySize=auto;html=1;fontSize=18;fontColor=#FF0000;strokeColor=#000000;fillColor=#FF0505;" edge="1" parent="Ivp7XSNdGWLuYwFV0-WS-1" source="cP2Veq6H7C6e9CppTrZS-2">
          <mxGeometry relative="1" as="geometry">
            <mxPoint x="212" y="460" as="targetPoint" />
          </mxGeometry>
        </mxCell>
        <mxCell id="cP2Veq6H7C6e9CppTrZS-2" value="COp" style="text;html=1;align=center;verticalAlign=middle;resizable=0;points=[];autosize=1;strokeColor=none;fillColor=none;fontSize=18;" vertex="1" parent="Ivp7XSNdGWLuYwFV0-WS-1">
          <mxGeometry x="187" y="555" width="50" height="30" as="geometry" />
        </mxCell>
        <mxCell id="cP2Veq6H7C6e9CppTrZS-5" style="edgeStyle=orthogonalEdgeStyle;rounded=0;orthogonalLoop=1;jettySize=auto;html=1;fontSize=18;fontColor=#FF0000;strokeColor=#000000;fillColor=#FF0505;" edge="1" parent="Ivp7XSNdGWLuYwFV0-WS-1" source="cP2Veq6H7C6e9CppTrZS-4">
          <mxGeometry relative="1" as="geometry">
            <mxPoint x="252" y="580" as="targetPoint" />
          </mxGeometry>
        </mxCell>
        <mxCell id="cP2Veq6H7C6e9CppTrZS-4" value="N" style="text;html=1;align=center;verticalAlign=middle;resizable=0;points=[];autosize=1;strokeColor=none;fillColor=none;fontSize=18;" vertex="1" parent="Ivp7XSNdGWLuYwFV0-WS-1">
          <mxGeometry x="237" y="610" width="30" height="30" as="geometry" />
        </mxCell>
        <mxCell id="cP2Veq6H7C6e9CppTrZS-7" style="edgeStyle=orthogonalEdgeStyle;rounded=0;orthogonalLoop=1;jettySize=auto;html=1;fontSize=18;fontColor=#FF0000;strokeColor=#000000;fillColor=#FF0505;" edge="1" parent="Ivp7XSNdGWLuYwFV0-WS-1" source="cP2Veq6H7C6e9CppTrZS-6">
          <mxGeometry relative="1" as="geometry">
            <mxPoint x="252" y="520" as="targetPoint" />
          </mxGeometry>
        </mxCell>
        <mxCell id="cP2Veq6H7C6e9CppTrZS-6" value="T" style="text;html=1;align=center;verticalAlign=middle;resizable=0;points=[];autosize=1;strokeColor=none;fillColor=none;fontSize=18;" vertex="1" parent="Ivp7XSNdGWLuYwFV0-WS-1">
          <mxGeometry x="237" y="555" width="30" height="30" as="geometry" />
        </mxCell>
        <mxCell id="cP2Veq6H7C6e9CppTrZS-8" value="E" style="text;html=1;align=center;verticalAlign=middle;resizable=0;points=[];autosize=1;strokeColor=none;fillColor=none;fontSize=18;" vertex="1" parent="Ivp7XSNdGWLuYwFV0-WS-1">
          <mxGeometry x="237" y="490" width="30" height="30" as="geometry" />
        </mxCell>
        <mxCell id="cP2Veq6H7C6e9CppTrZS-9" value="" style="endArrow=classic;html=1;rounded=0;fontSize=18;fontColor=#FF0000;strokeColor=#000000;fillColor=#FF0505;" edge="1" parent="Ivp7XSNdGWLuYwFV0-WS-1">
          <mxGeometry width="50" height="50" relative="1" as="geometry">
            <mxPoint x="170" y="555" as="sourcePoint" />
            <mxPoint x="200" y="460" as="targetPoint" />
          </mxGeometry>
        </mxCell>
        <mxCell id="cP2Veq6H7C6e9CppTrZS-11" value="" style="endArrow=classic;html=1;rounded=0;fontSize=18;fontColor=#FF0000;strokeColor=#000000;fillColor=#FF0505;exitX=0.433;exitY=0;exitDx=0;exitDy=0;exitPerimeter=0;" edge="1" parent="Ivp7XSNdGWLuYwFV0-WS-1" source="cP2Veq6H7C6e9CppTrZS-8">
          <mxGeometry width="50" height="50" relative="1" as="geometry">
            <mxPoint x="250" y="500" as="sourcePoint" />
            <mxPoint x="220" y="460" as="targetPoint" />
          </mxGeometry>
        </mxCell>
        <mxCell id="sbICxTRLczJICdPEyzuL-0" value="&lt;b&gt;&lt;font color=&quot;#ff0000&quot;&gt;CC&lt;/font&gt;&lt;/b&gt;" style="text;html=1;align=center;verticalAlign=middle;resizable=0;points=[];autosize=1;strokeColor=none;fillColor=none;fontSize=18;" vertex="1" parent="Ivp7XSNdGWLuYwFV0-WS-1">
          <mxGeometry x="192" y="430" width="40" height="30" as="geometry" />
        </mxCell>
        <mxCell id="C7RqE1NCY2bbAgPsiyap-1" value="X" style="text;html=1;align=center;verticalAlign=middle;resizable=0;points=[];autosize=1;strokeColor=none;fillColor=none;fontSize=18;" vertex="1" parent="Ivp7XSNdGWLuYwFV0-WS-1">
          <mxGeometry x="330" y="430" width="30" height="30" as="geometry" />
        </mxCell>
        <mxCell id="C7RqE1NCY2bbAgPsiyap-13" style="edgeStyle=orthogonalEdgeStyle;rounded=0;orthogonalLoop=1;jettySize=auto;html=1;fontSize=18;fontColor=#FF0000;strokeColor=#000000;fillColor=#FF0505;" edge="1" parent="Ivp7XSNdGWLuYwFV0-WS-1" source="C7RqE1NCY2bbAgPsiyap-3">
          <mxGeometry relative="1" as="geometry">
            <mxPoint x="420" y="520" as="targetPoint" />
          </mxGeometry>
        </mxCell>
        <mxCell id="C7RqE1NCY2bbAgPsiyap-3" value="X" style="text;html=1;align=center;verticalAlign=middle;resizable=0;points=[];autosize=1;strokeColor=none;fillColor=none;fontSize=18;" vertex="1" parent="Ivp7XSNdGWLuYwFV0-WS-1">
          <mxGeometry x="405" y="580" width="30" height="30" as="geometry" />
        </mxCell>
        <mxCell id="C7RqE1NCY2bbAgPsiyap-5" value="AOp" style="text;html=1;align=center;verticalAlign=middle;resizable=0;points=[];autosize=1;strokeColor=none;fillColor=none;fontSize=18;" vertex="1" parent="Ivp7XSNdGWLuYwFV0-WS-1">
          <mxGeometry x="444" y="490" width="50" height="30" as="geometry" />
        </mxCell>
        <mxCell id="C7RqE1NCY2bbAgPsiyap-8" style="edgeStyle=orthogonalEdgeStyle;rounded=0;orthogonalLoop=1;jettySize=auto;html=1;fontSize=18;fontColor=#FF0000;strokeColor=#000000;fillColor=#FF0505;" edge="1" parent="Ivp7XSNdGWLuYwFV0-WS-1" source="C7RqE1NCY2bbAgPsiyap-7">
          <mxGeometry relative="1" as="geometry">
            <mxPoint x="515" y="580" as="targetPoint" />
          </mxGeometry>
        </mxCell>
        <mxCell id="C7RqE1NCY2bbAgPsiyap-7" value="N" style="text;html=1;align=center;verticalAlign=middle;resizable=0;points=[];autosize=1;strokeColor=none;fillColor=none;fontSize=18;" vertex="1" parent="Ivp7XSNdGWLuYwFV0-WS-1">
          <mxGeometry x="500" y="610" width="30" height="30" as="geometry" />
        </mxCell>
        <mxCell id="C7RqE1NCY2bbAgPsiyap-10" style="edgeStyle=orthogonalEdgeStyle;rounded=0;orthogonalLoop=1;jettySize=auto;html=1;fontSize=18;fontColor=#FF0000;strokeColor=#000000;fillColor=#FF0505;" edge="1" parent="Ivp7XSNdGWLuYwFV0-WS-1" source="C7RqE1NCY2bbAgPsiyap-9">
          <mxGeometry relative="1" as="geometry">
            <mxPoint x="515" y="520" as="targetPoint" />
          </mxGeometry>
        </mxCell>
        <mxCell id="C7RqE1NCY2bbAgPsiyap-9" value="T" style="text;html=1;align=center;verticalAlign=middle;resizable=0;points=[];autosize=1;strokeColor=none;fillColor=none;fontSize=18;" vertex="1" parent="Ivp7XSNdGWLuYwFV0-WS-1">
          <mxGeometry x="500" y="550" width="30" height="30" as="geometry" />
        </mxCell>
        <mxCell id="C7RqE1NCY2bbAgPsiyap-11" value="E" style="text;html=1;align=center;verticalAlign=middle;resizable=0;points=[];autosize=1;strokeColor=none;fillColor=none;fontSize=18;" vertex="1" parent="Ivp7XSNdGWLuYwFV0-WS-1">
          <mxGeometry x="500" y="490" width="30" height="30" as="geometry" />
        </mxCell>
        <mxCell id="C7RqE1NCY2bbAgPsiyap-14" value="T" style="text;html=1;align=center;verticalAlign=middle;resizable=0;points=[];autosize=1;strokeColor=none;fillColor=none;fontSize=18;" vertex="1" parent="Ivp7XSNdGWLuYwFV0-WS-1">
          <mxGeometry x="405" y="490" width="30" height="30" as="geometry" />
        </mxCell>
        <mxCell id="C7RqE1NCY2bbAgPsiyap-15" value="" style="endArrow=classic;html=1;rounded=0;fontSize=18;fontColor=#FF0000;strokeColor=#000000;fillColor=#FF0505;" edge="1" parent="Ivp7XSNdGWLuYwFV0-WS-1" target="C7RqE1NCY2bbAgPsiyap-16">
          <mxGeometry width="50" height="50" relative="1" as="geometry">
            <mxPoint x="420" y="490" as="sourcePoint" />
            <mxPoint x="450" y="470" as="targetPoint" />
          </mxGeometry>
        </mxCell>
        <mxCell id="C7RqE1NCY2bbAgPsiyap-16" value="E" style="text;html=1;align=center;verticalAlign=middle;resizable=0;points=[];autosize=1;strokeColor=none;fillColor=none;fontSize=18;" vertex="1" parent="Ivp7XSNdGWLuYwFV0-WS-1">
          <mxGeometry x="454" y="430" width="30" height="30" as="geometry" />
        </mxCell>
        <mxCell id="C7RqE1NCY2bbAgPsiyap-18" value="" style="endArrow=classic;html=1;rounded=0;fontSize=18;fontColor=#FF0000;strokeColor=#000000;fillColor=#FF0505;" edge="1" parent="Ivp7XSNdGWLuYwFV0-WS-1" source="C7RqE1NCY2bbAgPsiyap-5">
          <mxGeometry width="50" height="50" relative="1" as="geometry">
            <mxPoint x="469" y="469.28932188134524" as="sourcePoint" />
            <mxPoint x="469" y="460" as="targetPoint" />
          </mxGeometry>
        </mxCell>
        <mxCell id="C7RqE1NCY2bbAgPsiyap-19" value="" style="endArrow=classic;html=1;rounded=0;fontSize=18;fontColor=#FF0000;strokeColor=#000000;fillColor=#FF0505;entryX=1;entryY=0.983;entryDx=0;entryDy=0;entryPerimeter=0;" edge="1" parent="Ivp7XSNdGWLuYwFV0-WS-1" target="C7RqE1NCY2bbAgPsiyap-16">
          <mxGeometry width="50" height="50" relative="1" as="geometry">
            <mxPoint x="514" y="490" as="sourcePoint" />
            <mxPoint x="444" y="450" as="targetPoint" />
          </mxGeometry>
        </mxCell>
        <mxCell id="C7RqE1NCY2bbAgPsiyap-20" value="" style="endArrow=classic;html=1;rounded=0;fontSize=18;fontColor=#FF0000;strokeColor=#000000;fillColor=#FF0505;" edge="1" parent="Ivp7XSNdGWLuYwFV0-WS-1">
          <mxGeometry width="50" height="50" relative="1" as="geometry">
            <mxPoint x="345" y="430" as="sourcePoint" />
            <mxPoint x="400" y="380" as="targetPoint" />
          </mxGeometry>
        </mxCell>
        <mxCell id="C7RqE1NCY2bbAgPsiyap-21" value="S" style="text;html=1;align=center;verticalAlign=middle;resizable=0;points=[];autosize=1;strokeColor=none;fillColor=none;fontSize=18;" vertex="1" parent="Ivp7XSNdGWLuYwFV0-WS-1">
          <mxGeometry x="399" y="350" width="30" height="30" as="geometry" />
        </mxCell>
        <mxCell id="C7RqE1NCY2bbAgPsiyap-23" value="" style="endArrow=classic;html=1;rounded=0;fontSize=18;fontColor=#FF0000;strokeColor=#000000;fillColor=#FF0505;entryX=0.7;entryY=1.017;entryDx=0;entryDy=0;entryPerimeter=0;exitX=0.533;exitY=-0.117;exitDx=0;exitDy=0;exitPerimeter=0;" edge="1" parent="Ivp7XSNdGWLuYwFV0-WS-1" source="C7RqE1NCY2bbAgPsiyap-16" target="C7RqE1NCY2bbAgPsiyap-21">
          <mxGeometry width="50" height="50" relative="1" as="geometry">
            <mxPoint x="500" y="450" as="sourcePoint" />
            <mxPoint x="550" y="400" as="targetPoint" />
          </mxGeometry>
        </mxCell>
        <mxCell id="C7RqE1NCY2bbAgPsiyap-25" value="" style="endArrow=classic;html=1;rounded=0;fontSize=18;fontColor=#FF0000;strokeColor=#000000;fillColor=#FF0505;entryX=0.433;entryY=1.017;entryDx=0;entryDy=0;entryPerimeter=0;exitX=0.433;exitY=0.05;exitDx=0;exitDy=0;exitPerimeter=0;" edge="1" parent="Ivp7XSNdGWLuYwFV0-WS-1" source="p8ysp5Qv1cWSzB2e6rz6-8" target="C7RqE1NCY2bbAgPsiyap-21">
          <mxGeometry width="50" height="50" relative="1" as="geometry">
            <mxPoint x="370" y="680" as="sourcePoint" />
            <mxPoint x="420" y="630" as="targetPoint" />
          </mxGeometry>
        </mxCell>
        <mxCell id="C7RqE1NCY2bbAgPsiyap-27" value="X" style="text;html=1;align=center;verticalAlign=middle;resizable=0;points=[];autosize=1;strokeColor=none;fillColor=none;fontSize=18;" vertex="1" parent="Ivp7XSNdGWLuYwFV0-WS-1">
          <mxGeometry x="585" y="490" width="30" height="30" as="geometry" />
        </mxCell>
        <mxCell id="3pvmmb-S8HhpCEGo7j11-2" style="edgeStyle=orthogonalEdgeStyle;rounded=0;orthogonalLoop=1;jettySize=auto;html=1;fontSize=18;fontColor=#FF0000;strokeColor=#000000;fillColor=#FF0505;" edge="1" parent="Ivp7XSNdGWLuYwFV0-WS-1" source="3pvmmb-S8HhpCEGo7j11-1">
          <mxGeometry relative="1" as="geometry">
            <mxPoint x="670" y="580" as="targetPoint" />
          </mxGeometry>
        </mxCell>
        <mxCell id="3pvmmb-S8HhpCEGo7j11-1" value="X" style="text;html=1;align=center;verticalAlign=middle;resizable=0;points=[];autosize=1;strokeColor=none;fillColor=none;fontSize=18;" vertex="1" parent="Ivp7XSNdGWLuYwFV0-WS-1">
          <mxGeometry x="655" y="610" width="30" height="30" as="geometry" />
        </mxCell>
        <mxCell id="3pvmmb-S8HhpCEGo7j11-4" style="edgeStyle=orthogonalEdgeStyle;rounded=0;orthogonalLoop=1;jettySize=auto;html=1;fontSize=18;fontColor=#FF0000;strokeColor=#000000;fillColor=#FF0505;" edge="1" parent="Ivp7XSNdGWLuYwFV0-WS-1" source="3pvmmb-S8HhpCEGo7j11-3">
          <mxGeometry relative="1" as="geometry">
            <mxPoint x="670" y="520" as="targetPoint" />
          </mxGeometry>
        </mxCell>
        <mxCell id="3pvmmb-S8HhpCEGo7j11-3" value="T" style="text;html=1;align=center;verticalAlign=middle;resizable=0;points=[];autosize=1;strokeColor=none;fillColor=none;fontSize=18;" vertex="1" parent="Ivp7XSNdGWLuYwFV0-WS-1">
          <mxGeometry x="655" y="555" width="30" height="30" as="geometry" />
        </mxCell>
        <mxCell id="3pvmmb-S8HhpCEGo7j11-5" value="E" style="text;html=1;align=center;verticalAlign=middle;resizable=0;points=[];autosize=1;strokeColor=none;fillColor=none;fontSize=18;" vertex="1" parent="Ivp7XSNdGWLuYwFV0-WS-1">
          <mxGeometry x="655" y="490" width="30" height="30" as="geometry" />
        </mxCell>
        <mxCell id="3pvmmb-S8HhpCEGo7j11-7" value="" style="endArrow=classic;html=1;rounded=0;fontSize=18;fontColor=#FF0000;strokeColor=#000000;fillColor=#FF0505;entryX=0.167;entryY=0.967;entryDx=0;entryDy=0;entryPerimeter=0;" edge="1" parent="Ivp7XSNdGWLuYwFV0-WS-1" target="3pvmmb-S8HhpCEGo7j11-9">
          <mxGeometry width="50" height="50" relative="1" as="geometry">
            <mxPoint x="600" y="490" as="sourcePoint" />
            <mxPoint x="630" y="440" as="targetPoint" />
          </mxGeometry>
        </mxCell>
        <mxCell id="3pvmmb-S8HhpCEGo7j11-8" value="" style="endArrow=classic;html=1;rounded=0;fontSize=18;fontColor=#FF0000;strokeColor=#000000;fillColor=#FF0505;entryX=0.833;entryY=1;entryDx=0;entryDy=0;entryPerimeter=0;" edge="1" parent="Ivp7XSNdGWLuYwFV0-WS-1" target="3pvmmb-S8HhpCEGo7j11-9">
          <mxGeometry width="50" height="50" relative="1" as="geometry">
            <mxPoint x="670" y="490" as="sourcePoint" />
            <mxPoint x="650" y="450" as="targetPoint" />
          </mxGeometry>
        </mxCell>
        <mxCell id="3pvmmb-S8HhpCEGo7j11-13" value="" style="edgeStyle=orthogonalEdgeStyle;rounded=0;orthogonalLoop=1;jettySize=auto;html=1;fontSize=18;fontColor=#FF0000;strokeColor=#000000;fillColor=#FF0505;" edge="1" parent="Ivp7XSNdGWLuYwFV0-WS-1" source="3pvmmb-S8HhpCEGo7j11-9" target="3pvmmb-S8HhpCEGo7j11-11">
          <mxGeometry relative="1" as="geometry" />
        </mxCell>
        <mxCell id="3pvmmb-S8HhpCEGo7j11-9" value="S" style="text;html=1;align=center;verticalAlign=middle;resizable=0;points=[];autosize=1;strokeColor=none;fillColor=none;fontSize=18;" vertex="1" parent="Ivp7XSNdGWLuYwFV0-WS-1">
          <mxGeometry x="620" y="420" width="30" height="30" as="geometry" />
        </mxCell>
        <mxCell id="3pvmmb-S8HhpCEGo7j11-11" value="CB" style="text;html=1;align=center;verticalAlign=middle;resizable=0;points=[];autosize=1;strokeColor=none;fillColor=none;fontSize=18;" vertex="1" parent="Ivp7XSNdGWLuYwFV0-WS-1">
          <mxGeometry x="615" y="350" width="40" height="30" as="geometry" />
        </mxCell>
        <mxCell id="3g6QK0kccNvWYUkPzHAJ-1" value="" style="endArrow=classic;html=1;rounded=0;fontSize=18;fontColor=#FF0000;strokeColor=#000000;fillColor=#FF0505;entryX=0.225;entryY=0.967;entryDx=0;entryDy=0;entryPerimeter=0;" edge="1" parent="Ivp7XSNdGWLuYwFV0-WS-1">
          <mxGeometry width="50" height="50" relative="1" as="geometry">
            <mxPoint x="420" y="350" as="sourcePoint" />
            <mxPoint x="479" y="289.01" as="targetPoint" />
          </mxGeometry>
        </mxCell>
        <mxCell id="3g6QK0kccNvWYUkPzHAJ-3" value="" style="endArrow=classic;html=1;rounded=0;fontSize=18;fontColor=#FF0000;strokeColor=#000000;fillColor=#FF0505;exitX=0.35;exitY=0;exitDx=0;exitDy=0;exitPerimeter=0;" edge="1" parent="Ivp7XSNdGWLuYwFV0-WS-1" source="3pvmmb-S8HhpCEGo7j11-11">
          <mxGeometry width="50" height="50" relative="1" as="geometry">
            <mxPoint x="610" y="360" as="sourcePoint" />
            <mxPoint x="500" y="290" as="targetPoint" />
          </mxGeometry>
        </mxCell>
        <mxCell id="3g6QK0kccNvWYUkPzHAJ-4" value="&lt;font color=&quot;#ff0000&quot;&gt;&lt;b&gt;CB&lt;/b&gt;&lt;/font&gt;" style="text;html=1;align=center;verticalAlign=middle;resizable=0;points=[];autosize=1;strokeColor=none;fillColor=none;fontSize=18;" vertex="1" parent="Ivp7XSNdGWLuYwFV0-WS-1">
          <mxGeometry x="470" y="260" width="40" height="30" as="geometry" />
        </mxCell>
      </root>
    </mxGraphModel>
  </diagram>
</mxfile>
